<svg xmlns="http://www.w3.org/2000/svg" viewBox="0 0 267 267" width="267" height="267">
<path d="M0 0 C28.5 25 44.8 55.1 49 93 C50.4 130.3 40.9 163.7 16.5 192.2 C15 193.8 13.5 195.4 12 197 C10.5 198.7 8.9 200.3 7.3 202 C-23.2 230.7 -59.5 238.1 -100 237 C-136.6 232.4 -168.8 214.1 -191.5 184.9 C-214 152.5 -220.7 119.1 -216.3 79.8 C-210 45.7 -191 17.1 -164 -4 C-114.2 -37.7 -47.4 -38.9 0 0 Z M-185 22 C-207.2 51.2 -216.6 85 -212.8 121.5 C-208 155 -191 183.9 -165.4 205.6 C-133.7 228.7 -99.6 236.5 -61 231.9 C-23 222.7 6.3 203 27.6 169.8 C45.8 137.4 49.7 101.5 39.7 65.8 C27.5 30.6 5.1 4.2 -28 -13 C-85.8 -37.8 -142.7 -22.7 -185 22 Z " fill="#1F3D86" transform="translate(218,29)"/>
<path d="M0 0 C2 0 4 0 6 0 C5.7 0.7 5.3 1.3 5 2 C3.7 1.7 2.4 1.3 1 1 C1 2.3 1 3.6 1 5 C1.7 5 2.3 5 3 5 C3.3 4.3 3.7 3.7 4 3 C3.7 4.3 3.3 5.6 3 7 C2.3 6.7 1.7 6.3 1 6 C1 7.3 1 8.6 1 10 C5 9 5 9 7 7 C7 8.3 7 9.6 7 11 C4.4 11 1.7 11 -1 11 C-1 1 -1 1 0 0 Z " fill="#1F3D86" transform="translate(127,8)"/>
<path d="M0 0 C0.7 0 1.3 0 2 0 C1.7 3.3 1.3 6.6 1 10 C0 9.7 -1 9.3 -2 9 C-1.3 6 -0.7 3.1 0 0 Z " fill="#1F3D86" transform="translate(142,9)"/>
<path d="M0 0 C0.7 0 1.3 0 2 0 C2.3 3 2.7 5.9 3 9 C3.7 9.3 4.3 9.7 5 10 C3.7 10 2.4 10 1 10 C0.7 6.7 0.3 3.4 0 0 Z " fill="#1F3D86" transform="translate(115,10)"/>
<path d="M0 0 C0.7 0 1.3 0 2 0 C2.7 3.6 3.3 7.3 4 11 C3 10.3 2 9.7 1 9 C1 6.7 1 4.4 1 2 C0.3 1.7 -0.3 1.3 -1 1 C-0.7 0.7 -0.3 0.3 0 0 Z " fill="#1F3D86" transform="translate(155,11)"/>
<path d="M0 0 C1.3 0.3 2.6 0.7 4 1 C4.3 3.6 4.7 6.3 5 9 C6.3 9.3 7.6 9.7 9 10 C7.3 10 5.7 10 4 10 C2 5 2 5 2 1 C1.3 0.7 0.7 0.3 0 0 Z " fill="#1F3D86" transform="translate(101,12)"/>
<path d="M0 0 C5 5 5 5 6 8 C5.7 8.7 5.3 9.3 5 10 C4.3 9.7 3.7 9.3 3 9 C3.3 8 3.7 7 4 6 C2.7 5.7 1.4 5.3 0 5 C-0.3 3.7 -0.7 2.4 -1 1 C-0.7 0.7 -0.3 0.3 0 0 Z " fill="#1F3D86" transform="translate(163,13)"/>
<path d="M0 0 C0.7 0.3 1.3 0.7 2 1 C1.7 2.3 1.3 3.6 1 5 C1.7 6.6 2.3 8.3 3 10 C1.7 9.3 0.4 8.7 -1 8 C-1 1 -1 1 0 0 Z " fill="#1F3D86" transform="translate(92,15)"/>
<path d="M0 0 C0.7 0.3 0.7 0.3 4 2 C4.3 3.6 4.7 5.3 5 7 C4.7 7.5 4.7 7.5 3 10 C2.3 9.7 1.7 9.3 1 9 C1.3 7.4 1.7 5.7 2 4 C1.3 2.7 0.7 1.4 0 0 Z " fill="#1F3D86" transform="translate(96,15)"/>
<path d="M0 0 C1.3 0.7 2.6 1.3 4 2 C3 2 2 2 1 2 C1 2.7 1 3.3 1 4 C1.7 4.3 2.3 4.7 3 5 C2.7 6 2.3 7 2 8 C1.3 7.7 0.7 7.3 0 7 C0 8.3 0 9.6 0 11 C-1.3 10.3 -2.6 9.7 -4 9 C-2.7 6 -1.4 3.1 0 0 Z " fill="#1F3D86" transform="translate(174,15)"/>
<path d="M0 0 C1.3 0.7 2.6 1.3 4 2 C3 2 2 2 1 2 C0.7 3.6 0.3 5.3 0 7 C-0.3 7.5 -0.3 7.5 -2 10 C-2.7 9.7 -3.3 9.3 -4 9 C-2.7 6 -1.4 3.1 0 0 Z " fill="#1F3D86" transform="translate(184,19)"/>
<path d="M0 0 C2 4 2 4 3 7 C4.3 7.7 5.6 8.3 7 9 C5.3 9 3.7 9 2 9 C1.3 8.3 0.7 7.7 0 7 C0 4.7 0 2.4 0 0 Z " fill="#1F3D86" transform="translate(81,20)"/>
<path d="M0 0 C0.3 1 0.7 2 1 3 C0 3.3 -1 3.7 -2 4 C-1.7 6 -1.3 8 -1 10 C-2 9.7 -3 9.3 -4 9 C-4 7 -4 5 -4 3 C-3 2.7 -2 2.3 -1 2 C-0.7 1.3 -0.3 0.7 0 0 Z " fill="#1F3D86" transform="translate(189,22)"/>
<path d="M0 0 C1.6 1.4 3.2 2.8 4.8 4.3 C5.5 4.8 5.5 4.8 8.8 7.5 C30.9 28.5 42 57.2 43.1 87.3 C41.9 120.2 29.5 146.9 6.1 170 C-18.8 190.5 -46.4 198.7 -78.2 197.3 C-108.6 193.3 -132.4 179.7 -153.2 157.3 C-172.4 131.2 -180.5 102 -176.5 69.8 C-171.1 40.9 -156 16.2 -132.7 -1.7 C-91.7 -29 -39.9 -30.2 0 0 Z M-148.4 15.6 C-167.6 39.5 -176.3 65.7 -175.2 96.3 C-171.4 125.1 -159.9 149.6 -138.2 169.3 C-112.5 189 -85.7 197.5 -53.4 194.6 C-21 189.5 2.7 173.2 22.4 147.7 C39 121.7 43.2 93.6 38.2 63.5 C29.6 34 13.7 11.2 -12.2 -5.7 C-59.6 -29.9 -110.6 -22.8 -148.4 15.6 Z " fill="#1F3D86" transform="translate(201.1875,45.6875)"/>
<path d="M0 0 C3 4 3 4 4 8 C5 8.3 6 8.7 7 9 C5.7 9.3 4.4 9.7 3 10 C0 4 0 4 0 2 C-0.7 1.7 -1.3 1.3 -2 1 C-1.3 0.7 -0.7 0.3 0 0 Z " fill="#1F3D86" transform="translate(71,25)"/>
<path d="M0 0 C1.5 1.3 3 2.6 4.6 4 C6.2 5.4 7.9 6.8 9.6 8.2 C30.7 28.5 40.8 55.3 41.9 84.2 C40.6 115.2 29.1 140 7.6 162 C-17 182.4 -43.7 190.9 -75.4 189 C-105.4 185 -130.5 170 -149.1 146.3 C-165.7 119.7 -171.4 94.3 -167.3 63.4 C-159.9 34.1 -144.2 10.3 -118.4 -6 C-80 -26.9 -35.9 -26.4 0 0 Z M-92.4 18 C-92.4 18.3 -92.4 18.7 -92.4 19 C-84.4 19 -84.4 19 -76.5 17.5 C-58.1 14.1 -41.7 18.1 -25.7 27.3 C-20.4 31 -20.4 31 -16 35.5 C-14.8 36.7 -13.6 37.8 -12.4 39 C-11.1 38.7 -9.8 38.3 -8.4 38 C-21.5 24 -37.1 13.5 -56.8 12.8 C-69.6 12.7 -80.4 13.2 -92.4 18 Z M-76.4 18 C-76.4 18.3 -76.4 18.7 -76.4 19 C-67.9 19 -59.3 19 -50.4 19 C-50.4 18.7 -50.4 18.3 -50.4 18 C-59.5 16.9 -67.4 16.7 -76.4 18 Z M-110.4 20 C-110.4 21.7 -110.4 23.3 -110.4 25 C-109.6 25.3 -109.6 25.3 -105.4 27 C-107 36.5 -111.3 44.9 -115.1 53.7 C-115.9 55.7 -116.8 57.7 -117.6 59.8 C-120.2 65.8 -122.8 71.9 -125.4 78 C-126.9 81.5 -128.4 85 -129.9 88.5 C-143 119.3 -143 119.3 -152.4 125 C-150.4 130 -150.4 130 -146.4 134 C-140.9 134.4 -135.3 134.7 -129.7 134.8 C-126.7 134.8 -123.6 134.9 -120.5 134.9 C-119.3 134.9 -119.3 134.9 -113.4 135 C-112.4 137 -111.5 139 -110.4 141 C-104.6 146.8 -99.2 149.4 -91.4 152 C-90.4 153 -89.5 154 -88.4 155 C-83.9 155.4 -83.9 155.4 -78.2 155.4 C-76.1 155.4 -74.1 155.4 -72 155.4 C-69.8 155.4 -67.7 155.4 -65.4 155.4 C-63.3 155.4 -61.1 155.4 -58.9 155.4 C-57.9 155.4 -57.9 155.4 -52.7 155.4 C-50.8 155.4 -48.9 155.4 -47 155.4 C-42.4 155 -42.4 155 -39.4 152 C-37 150.8 -34.6 149.7 -32.1 148.5 C-14.8 139.5 -4.4 127.6 3.6 110 C4 108.2 4.5 106.4 5 104.5 C6.6 100 6.6 100 13.6 96 C12.9 95.7 12.2 95.3 11.6 95 C7.9 96.6 4.2 98.3 0.6 100 C1.2 100.3 1.9 100.7 2.6 101 C-5.7 126.3 -19.4 137.8 -42.4 150 C-42.8 150.7 -43.1 151.3 -43.4 152 C-50.7 152.1 -57.9 152.2 -65.2 152.2 C-67.3 152.3 -69.3 152.3 -71.4 152.4 C-73.4 152.4 -75.4 152.4 -77.4 152.4 C-78.3 152.4 -78.3 152.4 -82.9 152.5 C-87.4 152 -87.4 152 -91.4 148 C-94.8 147 -98.1 146 -101.4 145 C-106.4 142 -106.4 142 -108.7 136.9 C-112.4 132 -112.4 132 -120.1 130.9 C-123.1 131 -126.1 131 -129.1 131.1 C-134.6 131.1 -140 131.1 -145.4 131 C-146.4 130 -147.4 129 -148.4 128 C-141.7 127.8 -134.9 127.7 -128.1 127.5 C-126.2 127.5 -124.3 127.4 -122.3 127.4 C-104.6 126.9 -104.6 126.9 -102.4 128 C-102.2 126.3 -101.9 124.7 -101.7 123 C-99.7 113.5 -96.8 109.3 -89.4 103 C-85.4 101.3 -81.4 99.6 -77.4 98 C-76.4 95 -76.4 95 -77.4 90 C-76.1 88.7 -74.8 87.4 -73.4 86 C-71.8 86 -70.1 86 -68.4 86 C-67.4 90 -67.4 90 -69.4 99 C-62.9 95.7 -62 89.5 -59.4 83 C-59.4 82.3 -59.4 81.7 -59.4 81 C-60.8 81 -62.1 81 -63.4 81 C-63.4 81.7 -63.4 82.3 -63.4 83 C-63.9 82.8 -63.9 82.8 -66.4 82 C-73.4 82 -73.4 82 -82.4 86 C-86.4 91 -86.4 91 -86.4 98 C-88.1 98.7 -89.7 99.3 -91.4 100 C-101 105.3 -103.9 110.8 -107.4 121 C-107.4 122 -107.4 123 -107.4 124 C-109.7 123.3 -112.1 122.7 -114.4 122 C-113.7 120.2 -113 118.4 -112.2 116.6 C-109.3 109.4 -106.4 102.2 -103.4 95 C-102.2 92 -101 89 -99.8 85.9 C-97.4 80 -97.4 80 -97.4 78 C-94.5 78 -91.5 78 -88.4 78 C-70 76.2 -52.9 72.6 -40.4 58 C-35.7 50.4 -34.6 44.9 -35.4 36 C-39.4 27 -39.4 27 -44.4 23 C-53.6 20.7 -62.4 20.5 -71.8 20.4 C-73.5 20.3 -75.3 20.3 -77 20.3 C-88.2 20 -99.3 20 -110.4 20 Z M-44.4 21 C-43.1 22 -41.8 23 -40.4 24 C-39.1 23.7 -37.8 23.3 -36.4 23 C-40.4 21 -40.4 21 -44.4 21 Z M-38.4 26 C-38.1 26.7 -37.8 27.3 -37.4 28 C-34.5 28 -31.5 28 -28.4 28 C-28.8 27.3 -29.1 26.7 -29.4 26 C-32.4 26 -35.4 26 -38.4 26 Z M-116.4 35 C-130.3 51.7 -136.5 69.3 -135.4 91 C-135.1 91.5 -135.1 91.5 -133.4 94 C-132.4 92 -132.4 92 -132.1 84.9 C-130.4 62.3 -122.3 45.9 -106.4 30 C-106.4 29.3 -106.4 28.7 -106.4 28 C-110.6 28 -113.7 32.3 -116.4 35 Z M-36.4 30 C-36.1 30.7 -35.8 31.3 -35.4 32 C-31.1 32 -26.9 32 -22.4 32 C-22.8 31.3 -23.1 30.7 -23.4 30 C-27.7 30 -32 30 -36.4 30 Z M-33.4 34 C-33.1 34.7 -32.8 35.3 -32.4 36 C-27.5 36 -22.5 36 -17.4 36 C-17.8 35.3 -18.1 34.7 -18.4 34 C-23.4 34 -28.3 34 -33.4 34 Z M-112.4 38 C-112.8 38.7 -113.1 39.3 -113.4 40 C-112.4 40 -111.5 40 -110.4 40 C-110.4 39.3 -110.4 38.7 -110.4 38 C-111.1 38 -111.8 38 -112.4 38 Z M-31.4 38 C-31.4 38.3 -31.4 38.7 -31.4 39 C-25.8 39 -20.2 39 -14.4 39 C-14.4 38.7 -14.4 38.3 -14.4 38 C-20 38 -25.7 38 -31.4 38 Z M-30.4 41 C-30.4 44 -30.4 46.9 -30.4 50 C-33.5 61 -37.9 66.8 -47.6 72.8 C-49.5 73.9 -51.4 74.9 -53.4 76 C-55.1 77 -56.7 78 -58.4 79 C-54.4 81 -54.4 81 -52.4 81 C-54.1 85.6 -55.7 90.2 -57.4 95 C-51.4 93 -51.4 93 -48.4 89 C-48.4 88.3 -48.4 87.7 -48.4 87 C-41.4 89 -41.4 89 -38.4 93 C-39.7 100.6 -43.2 102.7 -48.4 108 C-47.4 111 -46.5 113.9 -45.4 117 C-41.5 111.7 -39.7 106.1 -37.4 100 C-34.3 99.8 -31.1 99.5 -27.8 99.2 C-10.3 97.6 6.1 93.2 18.6 80 C23.5 72 25.5 66.4 24.6 57 C24.2 55.8 24.2 55.8 22.6 50 C29.1 57.8 30.4 63.1 29.6 73 C26.1 81.4 23.1 85.5 16.6 92 C17.6 92 18.5 92 19.6 92 C27.9 83.7 31.2 78.5 32.1 66.8 C31.5 58.8 29.5 53.9 23.8 48.2 C12.7 39.8 1.4 40.9 -11.8 40.9 C-13.5 40.9 -15.3 40.9 -17.2 41 C-21.6 41 -26 41 -30.4 41 Z M-115.4 42 C-115.8 42.5 -115.8 42.5 -117.4 45 C-115.8 44.7 -114.1 44.3 -112.4 44 C-112.4 43.3 -112.4 42.7 -112.4 42 C-113.4 42 -114.4 42 -115.4 42 Z M-119.4 47 C-119.8 47.7 -120.1 48.3 -120.4 49 C-118.5 49 -116.5 49 -114.4 49 C-114.4 48.3 -114.4 47.7 -114.4 47 C-116.1 47 -117.7 47 -119.4 47 Z M-122.4 51 C-122.4 51.7 -122.4 52.3 -122.4 53 C-120.5 53 -118.5 53 -116.4 53 C-116.1 52.3 -115.8 51.7 -115.4 51 C-117.7 51 -120.1 51 -122.4 51 Z M-124.4 55 C-124.4 55.7 -124.4 56.3 -124.4 57 C-122.5 57 -120.5 57 -118.4 57 C-118.1 56.3 -117.8 55.7 -117.4 55 C-119.7 55 -122.1 55 -124.4 55 Z M-125.4 59 C-125.8 60 -126.1 61 -126.4 62 C-124.5 62 -122.5 62 -120.4 62 C-120.1 61 -119.8 60 -119.4 59 C-121.4 59 -123.4 59 -125.4 59 Z M-127.4 64 C-127.4 64.7 -127.4 65.3 -127.4 66 C-125.5 66 -123.5 66 -121.4 66 C-121.4 65.3 -121.4 64.7 -121.4 64 C-123.4 64 -125.4 64 -127.4 64 Z M-128.4 68 C-128.4 68.7 -128.4 69.3 -128.4 70 C-126.8 70 -125.1 70 -123.4 70 C-123.4 69.3 -123.4 68.7 -123.4 68 C-125.1 68 -126.7 68 -128.4 68 Z M-129.4 72 C-129.4 72.7 -129.4 73.3 -129.4 74 C-127.8 73.7 -126.1 73.3 -124.4 73 C-124.4 72.7 -124.4 72.3 -124.4 72 C-126.1 72 -127.7 72 -129.4 72 Z M-130.4 76 C-130.4 76.7 -130.4 77.3 -130.4 78 C-129.1 78 -127.8 78 -126.4 78 C-126.4 77.3 -126.4 76.7 -126.4 76 C-127.8 76 -129.1 76 -130.4 76 Z M-130.4 80 C-130.1 81 -129.8 82 -129.4 83 C-129.1 82 -128.8 81 -128.4 80 C-129.1 80 -129.8 80 -130.4 80 Z M-92.4 85 C-92.8 85.7 -93.1 86.3 -93.4 87 C-90.8 87 -88.2 87 -85.4 87 C-84.8 86.3 -84.1 85.7 -83.4 85 C-86.4 85 -89.4 85 -92.4 85 Z M-94.4 89 C-94.4 89.7 -94.4 90.3 -94.4 91 C-92.1 91 -89.8 91 -87.4 91 C-87.4 90.3 -87.4 89.7 -87.4 89 C-89.7 89 -92.1 89 -94.4 89 Z M-47.4 89 C-48.1 90.3 -48.8 91.6 -49.4 93 C-54.1 95.1 -58.7 97.1 -63.4 99 C-84.8 108 -84.8 108 -91.4 118 C-91.8 121 -92.1 123.9 -92.4 127 C-89.4 130 -89.4 130 -83.4 131 C-77.4 128 -77.4 128 -74.4 125 C-74.4 124.3 -74.4 123.7 -74.4 123 C-75.1 123.2 -75.1 123.2 -78.4 124 C-79.1 124.2 -79.1 124.2 -82.4 125 C-83.1 123 -83.8 121 -84.4 119 C-80.4 111 -80.4 111 -73.4 107 C-70.5 106.7 -67.5 106.3 -64.4 106 C-60.4 110 -60.4 110 -60.4 118 C-64.4 127.9 -69.5 132.7 -79.4 137 C-87.9 137.6 -91.3 137.8 -98.4 133 C-99.4 132 -100.4 131 -101.4 130 C-101.4 130.7 -101.4 131.3 -101.4 132 C-104.1 132 -106.7 132 -109.4 132 C-108.4 137 -108.4 137 -103.4 141 C-92.4 143.7 -81.7 142.5 -71.4 138 C-62.3 132.4 -56.2 126.6 -51.4 117 C-51.4 109 -51.4 109 -56.4 103 C-54.7 101.9 -52.9 100.8 -51.1 99.7 C-45.4 96 -45.4 96 -43.4 93 C-43.6 92.3 -43.6 92.3 -44.4 89 C-45.4 89 -46.4 89 -47.4 89 Z M-95.4 93 C-95.8 93.7 -96.1 94.3 -96.4 95 C-93.8 95 -91.2 95 -88.4 95 C-88.4 94.3 -88.4 93.7 -88.4 93 C-90.7 93 -93.1 93 -95.4 93 Z M-71.4 93 C-71.8 93.7 -72.1 94.3 -72.4 95 C-71.8 95 -71.1 95 -70.4 95 C-70.8 94.3 -71.1 93.7 -71.4 93 Z M14.6 93 C14.2 93.7 13.9 94.3 13.6 95 C14.6 94.7 15.5 94.3 16.6 94 C15.9 93.7 15.2 93.3 14.6 93 Z M-97.4 97 C-97.4 98 -97.4 99 -97.4 100 C-95.5 99.7 -93.5 99.3 -91.4 99 C-91.1 98.3 -90.8 97.7 -90.4 97 C-92.7 97 -95.1 97 -97.4 97 Z M-11.4 103 C-11.4 103.3 -11.4 103.7 -11.4 104 C-7.5 104 -3.5 104 0.6 104 C0.6 103 0.6 102 0.6 101 C-3.4 101 -3.4 101 -11.4 103 Z M-32.4 106 C-32.4 106.7 -32.4 107.3 -32.4 108 C-22.2 108 -12 108 -1.4 108 C-1.1 107.3 -0.8 106.7 -0.4 106 C-11 106 -21.6 106 -32.4 106 Z M-34.4 110 C-34.4 110.7 -34.4 111.3 -34.4 112 C-23.9 112 -13.3 112 -2.4 112 C-2.4 111.3 -2.4 110.7 -2.4 110 C-13 110 -23.6 110 -34.4 110 Z M-73.4 114 C-75.4 118 -75.4 118 -75.4 121 C-69.4 124 -69.4 124 -67.4 124 C-67.1 125 -66.8 126 -66.4 127 C-62.4 121 -62.4 121 -61.4 112 C-66.4 111 -66.4 111 -73.4 114 Z M-35.4 114 C-35.8 114.7 -36.1 115.3 -36.4 116 C-25.9 116 -15.3 116 -4.4 116 C-4.4 115.3 -4.4 114.7 -4.4 114 C-14.7 114 -24.9 114 -35.4 114 Z M-36.4 118 C-36.8 119 -37.1 120 -37.4 121 C-27.5 121 -17.6 121 -7.4 121 C-7.1 120 -6.8 119 -6.4 118 C-16.3 118 -26.2 118 -36.4 118 Z M-95.4 123 C-95.8 123.7 -96.1 124.3 -96.4 125 C-95.8 125 -95.1 125 -94.4 125 C-94.8 124.3 -95.1 123.7 -95.4 123 Z M-39.4 123 C-39.4 123.7 -39.4 124.3 -39.4 125 C-29.9 125 -20.3 125 -10.4 125 C-10.1 124.3 -9.8 123.7 -9.4 123 C-19.3 123 -29.2 123 -39.4 123 Z M-96.4 127 C-96.4 127.7 -96.4 128.3 -96.4 129 C-95.4 129 -94.5 129 -93.4 129 C-93.4 128.3 -93.4 127.7 -93.4 127 C-94.4 127 -95.4 127 -96.4 127 Z M-40.4 127 C-40.8 127.7 -41.1 128.3 -41.4 129 C-32.2 129 -23 129 -13.4 129 C-13.1 128.3 -12.8 127.7 -12.4 127 C-21.7 127 -30.9 127 -40.4 127 Z M-51.4 130 C-52.4 131 -53.4 132 -54.4 133 C-54.4 133.7 -54.4 134.3 -54.4 135 C-55.1 135.3 -55.1 135.3 -58.4 137 C-59.8 137.9 -61.1 138.9 -62.4 139.9 C-67.9 143.3 -73.2 145.1 -79.4 147 C-79.4 147.3 -79.4 147.7 -79.4 148 C-68.9 148 -58.3 148 -47.4 148 C-47.4 146.7 -47.4 145.4 -47.4 144 C-49.4 143 -51.4 142 -53.4 141 C-52.4 138.4 -51.5 135.7 -50.4 133 C-50.8 132 -51.1 131 -51.4 130 Z M-95.4 131 C-95.4 131.7 -95.4 132.3 -95.4 133 C-93.8 133 -92.1 133 -90.4 133 C-90.8 132.3 -91.1 131.7 -91.4 131 C-92.8 131 -94.1 131 -95.4 131 Z M-42.4 131 C-42.4 131.7 -42.4 132.3 -42.4 133 C-34.2 133 -25.9 133 -17.4 133 C-17.1 132.3 -16.8 131.7 -16.4 131 C-25 131 -33.6 131 -42.4 131 Z M13.6 131 C13.6 131.7 13.6 132.3 13.6 133 C14.2 133 14.9 133 15.6 133 C15.6 132.3 15.6 131.7 15.6 131 C14.9 131 14.2 131 13.6 131 Z M5.6 132 C5.9 132.7 6.2 133.3 6.6 134 C7.6 133.3 8.5 132.7 9.6 132 C8.2 132 6.9 132 5.6 132 Z M4.6 134 C5.6 138 5.6 138 6.6 139 C8.2 139 9.9 139 11.6 139 C11.9 137.3 12.2 135.7 12.6 134 C12.2 134.2 12.2 134.2 10.6 135 C10.6 135.7 10.6 136.3 10.6 137 C6.6 136 6.6 136 4.6 134 Z M-91.4 135 C-87.4 136 -87.4 136 -87.4 136 Z M-43.4 135 C-43.8 136 -44.1 137 -44.4 138 C-41 138.1 -37.5 138.1 -34.1 138.2 C-33.1 138.2 -33.1 138.2 -28.2 138.3 C-26.6 138.2 -25.1 138.1 -23.4 138 C-22.8 137 -22.1 136 -21.4 135 C-28.7 135 -36 135 -43.4 135 Z M1.6 139 C3.2 140.3 4.9 141.6 6.6 143 C7.2 142.7 7.9 142.3 8.6 142 C4.6 139 4.6 139 1.6 139 Z M-45.4 140 C-45.8 140.7 -46.1 141.3 -46.4 142 C-40.8 142.1 -35.1 142.1 -29.4 142 C-28.8 141.3 -28.1 140.7 -27.4 140 C-33.4 140 -39.3 140 -45.4 140 Z M0.6 140 C0.4 140.7 0.4 140.7 -0.4 144 C0.9 145 2.2 146 3.6 147 C4.2 146.7 4.9 146.3 5.6 146 C4.2 145.3 2.9 144.7 1.6 144 C1.2 142.7 0.9 141.4 0.6 140 Z M-5.4 143 C-3.5 145.3 -1.5 147.6 0.6 150 C1.2 149.7 1.9 149.3 2.6 149 C0.6 147 -1.4 145 -3.4 143 C-4.1 143 -4.8 143 -5.4 143 Z M-45.4 144 C-44.8 144.7 -44.1 145.3 -43.4 146 C-41.5 146 -39.5 146 -37.4 146 C-36.8 145.3 -36.1 144.7 -35.4 144 C-38.7 144 -42 144 -45.4 144 Z M-10.4 151 C-10.6 151.7 -10.6 151.7 -11.4 155 C-10.1 154 -8.8 153 -7.4 152 C-7.8 152.5 -7.8 152.5 -9.4 155 C-9.4 156.3 -9.4 157.6 -9.4 159 C-5.4 158 -5.4 158 -2.4 155 C-3.8 153.7 -5.1 152.4 -6.4 151 C-7.8 151 -9.1 151 -10.4 151 Z M-19.4 155 C-19.1 156.3 -18.8 157.6 -18.4 159 C-19.4 159.3 -20.4 159.7 -21.4 160 C-21.1 161.7 -20.8 163.3 -20.4 165 C-18.8 165.3 -17.1 165.7 -15.4 166 C-14.4 165 -13.5 164 -12.4 163 C-13.3 161.7 -13.3 161.7 -17.4 155 C-18.1 155 -18.8 155 -19.4 155 Z M-14.4 155 C-12.4 160 -12.4 160 -9.4 162 C-11.4 158 -11.4 158 -14.4 155 Z M-117.4 156 C-116.1 156.3 -114.8 156.7 -113.4 157 C-113.1 158 -112.8 159 -112.4 160 C-112.4 158.7 -112.4 157.4 -112.4 156 C-114.1 156 -115.7 156 -117.4 156 Z M-119.4 160 C-119.4 161 -119.4 162 -119.4 163 C-118.4 163 -117.5 163 -116.4 163 C-116.8 162.7 -117.1 162.3 -117.4 162 C-116.1 161.3 -114.8 160.7 -113.4 160 C-115.4 160 -117.4 160 -119.4 160 Z M-110.4 160 C-111.4 162 -112.4 164 -113.4 166 C-113.1 166.7 -112.8 167.3 -112.4 168 C-110.8 167.7 -109.1 167.3 -107.4 167 C-106.8 166 -106.1 165 -105.4 164 C-105.8 162.7 -106.1 161.4 -106.4 160 C-107.8 160 -109.1 160 -110.4 160 Z M-28.4 160 C-28.1 160.7 -27.8 161.3 -27.4 162 C-27.1 161.3 -26.8 160.7 -26.4 160 C-27.1 160 -27.8 160 -28.4 160 Z M-26.4 162 C-27.1 162.7 -27.8 163.3 -28.4 164 C-28.4 165.7 -28.4 167.3 -28.4 169 C-28.1 169.3 -27.8 169.7 -27.4 170 C-25.8 170 -24.1 170 -22.4 170 C-21.4 166 -21.4 166 -22.4 163 C-23.8 162.7 -25.1 162.3 -26.4 162 Z M-103.4 163 C-103.9 163.7 -103.9 163.7 -106.4 167 C-106.1 168.7 -105.8 170.3 -105.4 172 C-104.1 171.7 -102.8 171.3 -101.4 171 C-100.4 171 -99.5 171 -98.4 171 C-99.1 171 -99.8 171 -100.4 171 C-100.1 172 -99.8 173 -99.4 174 C-97.8 173.7 -96.1 173.3 -94.4 173 C-94.1 170.7 -93.8 168.4 -93.4 166 C-94.8 165.7 -96.1 165.3 -97.4 165 C-97.8 165.3 -98.1 165.7 -98.4 166 C-99.1 165 -99.8 164 -100.4 163 C-101.4 163 -102.4 163 -103.4 163 Z M-34.4 166 C-33.4 166.3 -32.5 166.7 -31.4 167 C-31.1 168.7 -30.8 170.3 -30.4 172 C-29.8 171.7 -29.1 171.3 -28.4 171 C-29.1 169.3 -29.8 167.7 -30.4 166 C-31.8 166 -33.1 166 -34.4 166 Z M-84.4 167 C-87.4 170 -87.4 170 -88.4 174 C-87.8 175.3 -87.1 176.6 -86.4 178 C-84.5 178 -82.5 178 -80.4 178 C-80.4 177 -80.4 176 -80.4 175 C-82.1 175.3 -83.7 175.7 -85.4 176 C-85.4 173.7 -85.4 171.4 -85.4 169 C-80.4 170 -80.4 170 -78.4 172 C-78.8 170.7 -79.1 169.4 -79.4 168 C-81.1 167.7 -82.7 167.3 -84.4 167 Z M-38.4 167 C-38.8 167.7 -39.1 168.3 -39.4 169 C-38.4 169.3 -37.5 169.7 -36.4 170 C-35.8 171.3 -35.1 172.6 -34.4 174 C-33.4 172 -33.4 172 -34.4 167 C-35.8 167 -37.1 167 -38.4 167 Z M-68.4 169 C-68.4 172.6 -68.4 176.3 -68.4 180 C-66.4 176 -66.4 176 -66.4 169 C-67.1 169 -67.8 169 -68.4 169 Z M-48.4 170 C-48.1 171.3 -47.8 172.6 -47.4 174 C-46.1 174 -44.8 174 -43.4 174 C-43.4 174.7 -43.4 175.3 -43.4 176 C-44.8 175.7 -46.1 175.3 -47.4 175 C-47.4 175.7 -47.4 176.3 -47.4 177 C-45.8 177 -44.1 177 -42.4 177 C-42.1 175.7 -41.8 174.4 -41.4 173 C-43.1 172.7 -44.7 172.3 -46.4 172 C-45.1 171.3 -43.8 170.7 -42.4 170 C-46.4 169 -46.4 169 -48.4 170 Z M-41.4 169 C-40.4 171.3 -39.5 173.6 -38.4 176 C-38.1 175.3 -37.8 174.7 -37.4 174 C-38.1 172.3 -38.8 170.7 -39.4 169 C-40.1 169 -40.8 169 -41.4 169 Z M-51.4 171 C-51.1 173.3 -50.8 175.6 -50.4 178 C-50.1 176.7 -49.8 175.4 -49.4 174 C-50.1 173 -50.8 172 -51.4 171 Z M-76.4 172 C-76.8 174 -77.1 176 -77.4 178 C-76.8 178.7 -76.1 179.3 -75.4 180 C-73.8 179.7 -72.1 179.3 -70.4 179 C-70.4 177 -70.4 175 -70.4 173 C-70.8 172.7 -71.1 172.3 -71.4 172 C-73.1 172 -74.7 172 -76.4 172 Z M-64.4 172 C-64.8 172.3 -65.1 172.7 -65.4 173 C-65.4 174.7 -65.4 176.3 -65.4 178 C-64.8 178.7 -64.1 179.3 -63.4 180 C-61.8 179.7 -60.1 179.3 -58.4 179 C-58.4 177 -58.4 175 -58.4 173 C-58.8 172.7 -59.1 172.3 -59.4 172 C-61.1 172 -62.7 172 -64.4 172 Z M-53.4 171 C-54.4 171.3 -55.4 171.7 -56.4 172 C-56.1 174.3 -55.8 176.6 -55.4 179 C-55.1 179 -54.8 179 -54.4 179 C-54.4 177 -54.4 175 -54.4 173 C-53.8 173 -53.1 173 -52.4 173 C-52.8 172.3 -53.1 171.7 -53.4 171 Z " fill="#1F3D86" transform="translate(197.4375,49)"/>
<path d="M0 0 C4 4 4 4 7 9 C6 9 5 9 4 9 C2.7 7 1.4 5 0 3 C-0.7 2.3 -1.3 1.7 -2 1 C-1.3 0.7 -0.7 0.3 0 0 Z " fill="#1F3D86" transform="translate(60,32)"/>
<path d="M0 0 C2 2 2 2 2 6 C0 6.3 -2 6.7 -4 7 C-4 5 -4 3 -4 1 C-2.7 0.7 -1.4 0.3 0 0 Z " fill="#1F3D86" transform="translate(202,32)"/>
<path d="M0 0 C0.7 0.3 1.3 0.7 2 1 C2 4.6 2 8.3 2 12 C1.7 12.2 1.7 12.2 0 13 C-1.1 3.4 -1.1 3.4 0 0 Z " fill="#1F3D86" transform="translate(215,39)"/>
<path d="M0 0 C1.6 0 3.3 0 5 0 C5 2 5 4 5 6 C4 5.8 4 5.8 -1 5 C-0.7 3.4 -0.3 1.7 0 0 Z " fill="#1F3D86" transform="translate(50,44)"/>
<path d="M0 0 C0 0.7 0 1.3 0 2 C-1.3 3 -2.6 4 -4 5 C-4.7 6.3 -5.3 7.6 -6 9 C-6 7 -6 5 -6 3 C-2 0 -2 0 0 0 Z " fill="#1F3D86" transform="translate(225,49)"/>
<path d="M0 0 C0.3 0 0.7 0 1 0 C1 1.6 1 3.3 1 5 C-0.3 6 -1.6 7 -3 8 C-4 7.7 -5 7.3 -6 7 C-4.3 5.7 -2.7 4.4 -1 3 C-0.7 2 -0.3 1 0 0 Z " fill="#1F3D86" transform="translate(228,52)"/>
<path d="M0 0 C0.3 1 0.7 2 1 3 C2.3 3.7 3.6 4.3 5 5 C6 6 7 7 8 8 C7.3 8.7 6.7 9.3 6 10 C1 5 1 5 -1 1 C-0.7 0.7 -0.3 0.3 0 0 Z " fill="#1F3D86" transform="translate(35,56)"/>
<path d="M0 0 C0.7 0.3 1.3 0.7 2 1 C1.3 2.6 0.7 4.3 0 6 C-0.3 7.3 -0.7 8.6 -1 10 C-2.3 9.7 -3.6 9.3 -5 9 C-3.7 7.3 -2.4 5.7 -1 4 C-1.3 3.3 -1.7 2.7 -2 2 C-1.3 2 -0.7 2 0 2 C0 1.3 0 0.7 0 0 Z " fill="#1F3D86" transform="translate(232,57)"/>
<path d="M0 0 C1 0.3 2 0.7 3 1 C-1 5 -1 5 -6 8 C-6.3 7.3 -6.7 6.7 -7 6 C-5 4.7 -3 3.4 -1 2 C-0.7 1.3 -0.3 0.7 0 0 Z " fill="#1F3D86" transform="translate(236,64)"/>
<path d="M0 0 C1.6 0.7 1.6 0.7 10 4 C9.7 4.7 9.3 5.3 9 6 C4 5 4 5 -1 1 C-0.7 0.7 -0.3 0.3 0 0 Z " fill="#1F3D86" transform="translate(27,68)"/>
<path d="M0 0 C0 1 0 2 0 3 C-1.3 3.7 -1.3 3.7 -8 7 C-8 6 -8 5 -8 4 C-5.4 2.7 -2.7 1.4 0 0 Z " fill="#1F3D86" transform="translate(241,70)"/>
<path d="M0 0 C1.6 0.3 3.3 0.7 5 1 C5.7 2.3 6.3 3.6 7 5 C8.3 4.7 9.6 4.3 11 4 C10.7 5 10.3 6 10 7 C9 6.8 9 6.8 4 6 C4.3 5.3 4.7 4.7 5 4 C2.7 3.3 0.4 2.7 -2 2 C-1.3 1.3 -0.7 0.7 0 0 Z " fill="#1F3D86" transform="translate(25,74)"/>
<path d="M0 0 C0.3 0.7 0.7 1.3 1 2 C7 3 7 3 10 2 C9.7 3 9.3 4 9 5 C6.7 5 4.4 5 2 5 C1.3 4.3 0.7 3.7 0 3 C0 2 0 1 0 0 Z " fill="#1F3D86" transform="translate(22,79)"/>
<path d="M0 0 C8 0 8 0 16 4 C19 9 19 9 19 18 C13.1 29.4 3.7 33.7 -8 38 C-10.6 38.3 -13.3 38.7 -16 39 C-15.3 37.3 -14.7 35.7 -14 34 C-6.5 15.3 -6.5 15.3 -2.9 6 C-1 1 -1 1 0 0 Z M5 5 C5 5.3 5 5.7 5 6 C7.6 6 10.3 6 13 6 C13 5.7 13 5.3 13 5 C10.4 5 7.7 5 5 5 Z M4 8 C3.7 8.7 3.3 9.3 3 10 C8 10 12.9 10 18 10 C17.7 9.3 17.3 8.7 17 8 C12.7 8 8.4 8 4 8 Z M3 12 C2.7 13 2.3 14 2 15 C7 15 11.9 15 17 15 C17 14 17 13 17 12 C12.4 12 7.8 12 3 12 Z M0 17 C0 17.7 0 18.3 0 19 C5.3 19 10.6 19 16 19 C16 18.3 16 17.7 16 17 C10.7 17 5.4 17 0 17 Z M-1 21 C-1.3 21.7 -1.7 22.3 -2 23 C3.3 23 8.6 23 14 23 C14 22.3 14 21.7 14 21 C9.1 21 4.1 21 -1 21 Z M-3 25 C-3 25.7 -3 26.3 -3 27 C1.3 27 5.6 27 10 27 C10.3 26.3 10.7 25.7 11 25 C6.4 25 1.8 25 -3 25 Z M-4 29 C-4.3 30 -4.7 31 -5 32 C-3.5 31.8 -3.5 31.8 4 31 C4.3 30.3 4.7 29.7 5 29 C2 29 -0.9 29 -4 29 Z " fill="#1F3D86" transform="translate(120,79)"/>
<path d="M0 0 C0 4.7 -2.7 8 -5 12 C-5.7 11.7 -6.3 11.3 -7 11 C-7 10.3 -7 9.7 -7 9 C-6.3 9 -5.7 9 -5 9 C-5.3 7.7 -5.7 6.4 -6 5 C-5 4.7 -4 4.3 -3 4 C-2 2.7 -1 1.4 0 0 Z " fill="#1F3D86" transform="translate(246,79)"/>
<path d="M0 0 C3.6 1 7.3 2 11 3 C10.7 3.5 10.7 3.5 9 6 C7.5 5.3 7.5 5.3 0 2 C0 1.3 0 0.7 0 0 Z " fill="#1F3D86" transform="translate(18,85)"/>
<path d="M0 0 C0.3 0.7 0.7 1.3 1 2 C3.3 2.3 5.6 2.7 8 3 C8.7 3.3 9.3 3.7 10 4 C9.7 5 9.3 6 9 7 C9 6.3 9 5.7 9 5 C6 4.7 3.1 4.3 0 4 C0 2.7 0 1.4 0 0 Z " fill="#1F3D86" transform="translate(16,90)"/>
<path d="M0 0 C0.8 0.3 0.8 0.3 5 2 C4.3 3.7 3.7 5.3 3 7 C2.2 6.7 2.2 6.7 -2 5 C-1.3 3.3 -0.7 1.7 0 0 Z " fill="#1F3D86" transform="translate(246,96)"/>
<path d="M0 0 C0 0.7 0 1.3 0 2 C-3.6 2.3 -7.3 2.7 -11 3 C-11 2.3 -11 1.7 -11 1 C-2 -1 -2 -1 0 0 Z " fill="#1F3D86" transform="translate(24,98)"/>
<path d="M0 0 C8 0 8 0 14 3 C18 7 18 7 19 15 C15.1 25.4 9 29.6 -1.1 34.3 C-8 37 -8 37 -15 38 C-10.3 25.2 -5.2 12.6 0 0 Z M5 8 C5 9 5 10 5 11 C9 11 12.9 11 17 11 C17 10 17 9 17 8 C13 8 9.1 8 5 8 Z M3 13 C3 13.7 3 14.3 3 15 C7.3 15 11.6 15 16 15 C16.3 14.3 16.7 13.7 17 13 C12.4 13 7.8 13 3 13 Z M1 17 C1 17.7 1 18.3 1 19 C5.6 19 10.2 19 15 19 C15 18.3 15 17.7 15 17 C10.4 17 5.8 17 1 17 Z M0 21 C-0.3 21.7 -0.7 22.3 -1 23 C3.3 23 7.6 23 12 23 C12.3 22.3 12.7 21.7 13 21 C8.7 21 4.4 21 0 21 Z M-2 25 C-2 25.7 -2 26.3 -2 27 C1 27 3.9 27 7 27 C7.3 26.3 7.7 25.7 8 25 C4.7 25 1.4 25 -2 25 Z M-3 29 C-3.3 30 -3.7 31 -4 32 C-2 31.3 -0 30.7 2 30 C2 29.7 2 29.3 2 29 C0.3 29 -1.3 29 -3 29 Z " fill="#1F3D86" transform="translate(179,100)"/>
<path d="M0 0 C0.3 1 0.7 2 1 3 C-0.6 3 -2.3 3 -4 3 C-3.7 3.7 -3.3 4.3 -3 5 C-2 5.3 -1 5.7 0 6 C-0.3 7 -0.7 8 -1 9 C-1 8.3 -1 7.7 -1 7 C-4 6.7 -6.9 6.3 -10 6 C-9.7 4.7 -9.3 3.4 -9 2 C-8.7 2.7 -8.3 3.3 -8 4 C-7 4.3 -6 4.7 -5 5 C-4.7 3.7 -4.3 2.4 -4 1 C-2.7 0.7 -1.4 0.3 0 0 Z " fill="#1F3D86" transform="translate(21,106)"/>
<path d="M0 0 C0.3 1.3 0.7 2.6 1 4 C-1.3 4 -3.6 4 -6 4 C-7.3 4.3 -8.6 4.7 -10 5 C-9.7 3.7 -9.3 2.4 -9 1 C-7.5 0.8 -7.5 0.8 0 0 Z " fill="#1F3D86" transform="translate(256,110)"/>
<path d="M0 0 C0.3 1 0.7 2 1 3 C2.7 2.3 4.3 1.7 6 1 C5.7 2.3 5.3 3.6 5 5 C1.7 5.3 -1.6 5.7 -5 6 C-5 5 -5 4 -5 3 C-3.3 3 -1.7 3 0 3 C0 2 0 1 0 0 Z " fill="#1F3D86" transform="translate(252,115)"/>
<path d="M0 0 C1 0.3 2 0.7 3 1 C2.3 1 1.7 1 1 1 C1 1.7 1 2.3 1 3 C2.6 3 4.3 3 6 3 C5.7 4 5.3 5 5 6 C4.3 5.7 3.7 5.3 3 5 C0.4 5 -2.3 5 -5 5 C-5 4 -5 3 -5 2 C-3.7 2 -2.4 2 -1 2 C-0.7 1.3 -0.3 0.7 0 0 Z " fill="#1F3D86" transform="translate(14,119)"/>
<path d="M0 0 C0 1 0 2 0 3 C-3 3 -5.9 3 -9 3 C-9 2.3 -9 1.7 -9 1 C-7.5 0.8 -7.5 0.8 0 0 Z " fill="#1F3D86" transform="translate(257,123)"/>
<path d="M0 0 C3.6 0 7.3 0 11 0 C10.7 1.3 10.3 2.6 10 4 C6.7 4 3.4 4 0 4 C0 2.7 0 1.4 0 0 Z " fill="#1F3D86" transform="translate(9,127)"/>
<path d="M0 0 C1.3 0.3 2.6 0.7 4 1 C4 3.6 4 6.3 4 9 C2.7 8.7 1.4 8.3 0 8 C1 7 2 6 3 5 C-0.3 5.7 -3.6 6.3 -7 7 C-6.7 5.7 -6.3 4.4 -6 3 C-3 3.3 -0.1 3.7 3 4 C2 2.7 1 1.4 0 0 Z " fill="#1F3D86" transform="translate(255,128)"/>
<path d="M0 0 C0.3 0.7 0.7 1.3 1 2 C2.5 1.8 2.5 1.8 10 1 C10 2 10 3 10 4 C6.7 4 3.4 4 0 4 C0 2.7 0 1.4 0 0 Z " fill="#1F3D86" transform="translate(9,133)"/>
<path d="M0 0 C3.3 0.3 6.6 0.7 10 1 C9.7 2 9.3 3 9 4 C6 3.7 3.1 3.3 0 3 C0 2 0 1 0 0 Z " fill="#1F3D86" transform="translate(248,139)"/>
<path d="M0 0 C0.3 0.2 0.3 0.2 2 1 C1.7 1.7 1.3 2.3 1 3 C9 2 9 2 11 1 C10.7 2.3 10.3 3.6 10 5 C6.7 5 3.4 5 0 5 C0 3.3 0 1.7 0 0 Z " fill="#1F3D86" transform="translate(9,140)"/>
<path d="M0 0 C-0.3 1 -0.7 2 -1 3 C-4.3 4.1 -7.6 5.1 -11 6 C-10.7 5 -10.3 4 -10 3 C-9 3 -8 3 -7 3 C-6.7 2.3 -6.3 1.7 -6 1 C-2 0 -2 0 0 0 Z " fill="#1F3D86" transform="translate(257,151)"/>
<path d="M0 0 C-0.3 1 -0.7 2 -1 3 C-4.3 3.3 -7.6 3.7 -11 4 C-10.7 3 -10.3 2 -10 1 C-3 0 -3 0 0 0 Z " fill="#1F3D86" transform="translate(23,159)"/>
<path d="M0 0 C0.3 1.7 0.7 3.3 1 5 C-0.7 5.7 -2.3 6.3 -4 7 C-4.7 5 -5.3 3 -6 1 C-3 0 -3 0 0 0 Z " fill="#1F3D86" transform="translate(249,165)"/>
<path d="M0 0 C0.3 0 0.7 0 1 0 C1 1.7 1 3.3 1 5 C-2 6.3 -4.9 7.6 -8 9 C-8 8 -8 7 -8 6 C-5.4 5.3 -2.7 4.7 0 4 C0 2.7 0 1.4 0 0 Z " fill="#1F3D86" transform="translate(24,167)"/>
<path d="M0 0 C0 0.7 0 1.3 0 2 C-3.3 3.3 -6.6 4.6 -10 6 C-10 5 -10 4 -10 3 C-3 0 -3 0 0 0 Z " fill="#1F3D86" transform="translate(30,180)"/>
<path d="M0 0 C-9.6 4.1 -9.6 4.1 -13 3 C-9.1 -0.9 -5.1 -1.3 0 0 Z " fill="#1F3D86" transform="translate(249,183)"/>
<path d="M0 0 C0.7 1 1.3 2 2 3 C0.7 3.7 0.7 3.7 -6 7 C-7 6.7 -8 6.3 -9 6 C-9.3 4.7 -9.7 3.4 -10 2 C-9.3 2 -8.7 2 -8 2 C-8 3 -8 4 -8 5 C-6 4 -4 3 -2 2 C-1.3 2 -0.7 2 0 2 C0 1.3 0 0.7 0 0 Z " fill="#1F3D86" transform="translate(32,186)"/>
<path d="M0 0 C1.5 0.7 1.5 0.7 9 4 C9 5 9 6 9 7 C6.4 5.7 3.7 4.4 1 3 C0.7 2 0.3 1 0 0 Z " fill="#1F3D86" transform="translate(233,189)"/>
<path d="M0 0 C0.7 0.3 1.3 0.7 2 1 C1.3 2.7 0.7 4.3 0 6 C-0.7 6 -1.3 6 -2 6 C-1.7 7.3 -1.3 8.6 -1 10 C-2.3 10 -3.6 10 -5 10 C-3 5 -3 5 0 0 Z " fill="#1F3D86" transform="translate(35,192)"/>
<path d="M0 0 C0.8 0.3 0.8 0.3 5 2 C5.7 3.7 6.3 5.3 7 7 C5.3 5.7 3.7 4.4 2 3 C0.7 2.3 -0.6 1.7 -2 1 C-1.3 0.7 -0.7 0.3 0 0 Z " fill="#1F3D86" transform="translate(229,198)"/>
<path d="M0 0 C1.3 1.7 2.6 3.3 4 5 C5 6 6 7 7 8 C5.3 7.7 3.7 7.3 2 7 C0 4 0 4 0 0 Z " fill="#1F3D86" transform="translate(225,201)"/>
<path d="M0 0 C0.7 1 1.3 2 2 3 C1 3.8 1 3.8 -4 8 C-4.7 8.7 -5.3 9.3 -6 10 C-6.3 9 -6.7 8 -7 7 C-2 3 -2 3 0 3 C0 2 0 1 0 0 Z " fill="#1F3D86" transform="translate(44,204)"/>
<path d="M0 0 C7 6 7 6 8 8 C7.3 8.7 6.7 9.3 6 10 C5.3 8.7 4.7 7.4 4 6 C3.3 6 2.7 6 2 6 C1 4.3 0 2.7 -1 1 C-0.7 0.7 -0.3 0.3 0 0 Z " fill="#1F3D86" transform="translate(221,206)"/>
<path d="M0 0 C0.8 0.2 0.8 0.2 5 1 C4.7 2.3 4.3 3.6 4 5 C2.7 4.3 1.4 3.7 0 3 C0 2 0 1 0 0 Z " fill="#1F3D86" transform="translate(177,209)"/>
<path d="M0 0 C1 0.3 2 0.7 3 1 C2.3 2.7 1.7 4.3 1 6 C0 6 -1 6 -2 6 C-1 1 -1 1 0 0 Z " fill="#1F3D86" transform="translate(88,210)"/>
<path d="M0 0 C2 0 4 0 6 0 C5.3 0.3 5.3 0.3 2 2 C0.4 3.7 -1.3 5.3 -3 7 C-2 2 -2 2 0 0 Z " fill="#1F3D86" transform="translate(45,211)"/>
<path d="M0 0 C0.3 1.3 0.7 2.6 1 4 C0 5.3 -1 6.6 -2 8 C-3.6 8 -5.3 8 -7 8 C-5.4 6.7 -3.7 5.4 -2 4 C-1.3 2.7 -0.7 1.4 0 0 Z " fill="#1F3D86" transform="translate(52,213)"/>
<path d="M0 0 C1 0.3 2 0.7 3 1 C2.3 3 1.7 5 1 7 C0 6.7 -1 6.3 -2 6 C-1.3 4 -0.7 2 0 0 Z " fill="#1F3D86" transform="translate(94,213)"/>
<path d="M0 0 C2.7 2.7 5.3 5.3 8 8 C7 8.7 6 9.3 5 10 C4.7 9 4.3 8 4 7 C2.3 5.3 0.7 3.7 -1 2 C-0.7 1.3 -0.3 0.7 0 0 Z " fill="#1F3D86" transform="translate(215,213)"/>
<path d="M0 0 C2 0.7 4 1.3 6 2 C6 3.3 6 4.6 6 6 C6.7 6.7 7.3 7.3 8 8 C6.7 7.7 5.4 7.3 4 7 C4 5.7 4 4.4 4 3 C2.3 3 0.7 3 -1 3 C-0.7 2 -0.3 1 0 0 Z " fill="#1F3D86" transform="translate(211,217)"/>
<path d="M0 0 C2.4 3 4.7 6 7 9 C6 9 5 9 4 9 C2.3 6.7 0.7 4.4 -1 2 C-0.7 1.3 -0.3 0.7 0 0 Z " fill="#1F3D86" transform="translate(207,220)"/>
<path d="M0 0 C0.7 0.2 0.7 0.2 4 1 C4 2.3 4 3.6 4 5 C3 5.3 2 5.7 1 6 C0.3 4.7 -0.3 3.4 -1 2 C-0.7 1.3 -0.3 0.7 0 0 Z " fill="#1F3D86" transform="translate(122,222)"/>
<path d="M0 0 C0.7 0.2 0.7 0.2 4 1 C4 2.3 4 3.6 4 5 C3 5.3 2 5.7 1 6 C0.3 4.7 -0.3 3.4 -1 2 C-0.7 1.3 -0.3 0.7 0 0 Z " fill="#1F3D86" transform="translate(134,222)"/>
<path d="M0 0 C0.7 0.3 1.3 0.7 2 1 C0 5 0 5 -3 10 C-4 9.7 -5 9.3 -6 9 C-4.4 7 -2.7 5 -1 3 C-0.7 2 -0.3 1 0 0 Z " fill="#1F3D86" transform="translate(63,223)"/>
<path d="M0 0 C3.6 0.7 7.3 1.3 11 2 C11.3 3 11.7 4 12 5 C6 4 6 4 0 2 C0 1.3 0 0.7 0 0 Z " fill="#1F3D86" transform="translate(193,231)"/>
<path d="M0 0 C0.3 1.7 0.7 3.3 1 5 C0.7 5.3 0.3 5.7 0 6 C-1.7 6 -3.3 6 -5 6 C-5.2 5.2 -5.2 5.2 -6 1 C-4 0 -4 0 0 0 Z " fill="#1F3D86" transform="translate(78,233)"/>
<path d="M0 0 C4 8 4 8 4 10 C3.3 10 2.7 10 2 10 C-1 4 -1 4 -1 2 C-2 1.7 -3 1.3 -4 1 C-2 0 -2 0 0 0 Z " fill="#1F3D86" transform="translate(190,233)"/>
<path d="M0 0 C0.7 0 1.3 0 2 0 C1 3.6 0 7.3 -1 11 C-2 10.3 -3 9.7 -4 9 C-2.7 6 -1.4 3.1 0 0 Z " fill="#1F3D86" transform="translate(93,240)"/>
<path d="M0 0 C0.8 0.3 0.8 0.3 5 2 C4.3 3.7 3.7 5.3 3 7 C1.3 6.7 -0.3 6.3 -2 6 C-1 1 -1 1 0 0 Z " fill="#1F3D86" transform="translate(172,241)"/>
<path d="M0 0 C5 7.5 5 7.5 5 12 C4.3 12 3.7 12 3 12 C1 7 1 7 1 4 C0.3 4 -0.3 4 -1 4 C-0.7 2.7 -0.3 1.4 0 0 Z " fill="#1F3D86" transform="translate(99,242)"/>
<path d="M0 0 C1 0.3 2 0.7 3 1 C3 3.3 3 5.6 3 8 C3.3 9 3.7 10 4 11 C3 11 2 11 1 11 C0.7 7.4 0.3 3.7 0 0 Z " fill="#1F3D86" transform="translate(147,246)"/>
<path d="M0 0 C0.3 0.5 0.3 0.5 2 3 C4 3.7 6 4.3 8 5 C7.7 6.3 7.3 7.6 7 9 C7 8 7 7 7 6 C6 5.8 6 5.8 1 5 C0.8 4.2 0.8 4.2 0 0 Z " fill="#1F3D86" transform="translate(152,246)"/>
<path d="M0 0 C1.7 0 3.3 0 5 0 C4.7 0.2 4.7 0.2 3 1 C3 4 3 6.9 3 10 C3.7 10.3 4.3 10.7 5 11 C3.3 11 1.7 11 0 11 C0.7 10.7 1.3 10.3 2 10 C2 7 2 4.1 2 1 C1.3 0.7 0.7 0.3 0 0 Z " fill="#1F3D86" transform="translate(130,247)"/>
<path d="M0 0 C2.6 0 5.3 0 8 0 C8 3.6 8 7.3 8 11 C7 10.7 6 10.3 5 10 C5 7.4 5 4.7 5 2 C4 2 3 2 2 2 C1.3 2.7 0.7 3.3 0 4 C0 2.7 0 1.4 0 0 Z " fill="#1F3D86" transform="translate(136,247)"/>
<path d="M0 0 C30.1 24.1 48.2 54.6 53 93 C54.5 130.2 44.5 163.6 19.9 192 C-6.6 218.8 -38.3 233.8 -76.3 234.4 C-114.4 234 -146.6 218.7 -173.2 191.7 C-196.7 163.6 -208.1 129.6 -205.4 93.1 C-201.7 57.9 -184.8 28.7 -159 5 C-111.6 -32 -49.8 -33.3 0 0 Z M-83 -20 C-83.3 -19.7 -83.7 -19.3 -84 -19 C-84 -15.7 -84 -12.4 -84 -9 C-81.4 -9 -78.7 -9 -76 -9 C-76.3 -10.3 -76.7 -11.6 -77 -13 C-77.3 -12.3 -77.7 -11.7 -78 -11 C-79.3 -10.7 -80.6 -10.3 -82 -10 C-82 -11.3 -82 -12.6 -82 -14 C-81 -13.7 -80 -13.3 -79 -13 C-79.3 -14.3 -79.7 -15.6 -80 -17 C-80 -16.3 -80 -15.7 -80 -15 C-80.7 -15 -81.3 -15 -82 -15 C-82 -16.3 -82 -17.6 -82 -19 C-80.3 -18.7 -78.7 -18.3 -77 -18 C-77 -18.7 -77 -19.3 -77 -20 C-79 -20 -81 -20 -83 -20 Z M-93 -19 C-89 -18 -89 -18 -89 -18 Z M-68 -19 C-68.7 -15.7 -69.3 -12.4 -70 -9 C-69 -9 -68 -9 -67 -9 C-66.7 -12.3 -66.3 -15.6 -66 -19 C-66.7 -19 -67.3 -19 -68 -19 Z M-100 -18 C-100.7 -17.3 -101.3 -16.7 -102 -16 C-101.3 -16 -100.7 -16 -100 -16 C-99.7 -15 -99.3 -14 -99 -13 C-98.7 -14.7 -98.3 -16.3 -98 -18 C-98.7 -18 -99.3 -18 -100 -18 Z M-95 -18 C-94.7 -14.7 -94.3 -11.4 -94 -8 C-92.7 -8.3 -91.4 -8.7 -90 -9 C-90.7 -9 -91.3 -9 -92 -9 C-92.3 -12 -92.7 -14.9 -93 -18 C-93.7 -18 -94.3 -18 -95 -18 Z M-89 -18 C-88.7 -16.7 -88.3 -15.4 -88 -14 C-88 -15.3 -88 -16.6 -88 -18 C-88.3 -18 -88.7 -18 -89 -18 Z M-55 -17 C-55.3 -16.3 -55.7 -15.7 -56 -15 C-55.3 -15 -54.7 -15 -54 -15 C-54 -12.4 -54 -9.7 -54 -7 C-53 -6.7 -52 -6.3 -51 -6 C-51.7 -9.6 -52.3 -13.3 -53 -17 C-53.7 -17 -54.3 -17 -55 -17 Z M-109 -16 C-108.7 -15.8 -108.7 -15.8 -107 -15 C-106.7 -12.4 -106.3 -9.7 -106 -7 C-105.7 -6.7 -105.3 -6.3 -105 -6 C-103.3 -6 -101.7 -6 -100 -6 C-101.3 -6.3 -102.6 -6.7 -104 -7 C-104.3 -10 -104.7 -12.9 -105 -16 C-106.3 -16 -107.6 -16 -109 -16 Z M-47 -15 C-47.3 -14 -47.7 -13 -48 -12 C-47 -11 -46 -10 -45 -9 C-44.3 -9 -43.7 -9 -43 -9 C-43.3 -7.7 -43.7 -6.4 -44 -5 C-43.3 -5 -42.7 -5 -42 -5 C-41.7 -6 -41.3 -7 -41 -8 C-42.3 -9.3 -43.6 -10.6 -45 -12 C-45.7 -13 -46.3 -14 -47 -15 Z M-42 -14 C-41.7 -13 -41.3 -12 -41 -11 C-40.7 -12 -40.3 -13 -40 -14 C-40.7 -14 -41.3 -14 -42 -14 Z M-118 -13 C-118.3 -12.7 -118.7 -12.3 -119 -12 C-119 -9.7 -119 -7.4 -119 -5 C-118.3 -4.7 -118.3 -4.7 -115 -3 C-115.7 -4.6 -116.3 -6.3 -117 -8 C-116.7 -9.6 -116.3 -11.3 -116 -13 C-116.7 -13 -117.3 -13 -118 -13 Z M-114 -13 C-113.3 -11.7 -112.7 -10.4 -112 -9 C-112.3 -7 -112.7 -5 -113 -3 C-112 -3.3 -111 -3.7 -110 -4 C-109.7 -5.6 -109.3 -7.3 -109 -9 C-110 -10.3 -111 -11.6 -112 -13 C-112.7 -13 -113.3 -13 -114 -13 Z M-58 -13 C-58 -12.3 -58 -11.7 -58 -11 C-57.3 -11.3 -56.7 -11.7 -56 -12 C-56.7 -12.3 -57.3 -12.7 -58 -13 Z M-36 -13 C-37.3 -9.7 -38.6 -6.4 -40 -3 C-38.7 -2.7 -37.4 -2.3 -36 -2 C-35.7 -3.3 -35.3 -4.6 -35 -6 C-34.3 -5.7 -33.7 -5.3 -33 -5 C-33 -6 -33 -7 -33 -8 C-33.7 -8.3 -34.3 -8.7 -35 -9 C-35 -9.7 -35 -10.3 -35 -11 C-34 -11.3 -33 -11.7 -32 -12 C-33.3 -12.3 -34.6 -12.7 -36 -13 Z M-99 -12 C-98 -8 -98 -8 -98 -8 Z M-62 -12 C-62.5 -11.3 -62.5 -11.3 -65 -8 C-63.7 -8.3 -62.4 -8.7 -61 -9 C-61.3 -10 -61.7 -11 -62 -12 Z M-31 -11 C-30.7 -9.7 -30.3 -8.4 -30 -7 C-29.7 -8.3 -29.3 -9.6 -29 -11 C-29.7 -11 -30.3 -11 -31 -11 Z M-124 -10 C-123.7 -9 -123.3 -8 -123 -7 C-123 -8 -123 -9 -123 -10 C-123.3 -10 -123.7 -10 -124 -10 Z M-49 -10 C-49.2 -9.3 -49.2 -9.3 -50 -6 C-49 -6.3 -48 -6.7 -47 -7 C-47.7 -8 -48.3 -9 -49 -10 Z M-26 -9 C-27.3 -5.7 -28.6 -2.4 -30 1 C-27 0 -27 0 -25 -2 C-25 -0.4 -25 1.3 -25 3 C-24 3 -23 3 -22 3 C-22.2 2.2 -22.2 2.2 -23 -2 C-22 -2.3 -21 -2.7 -20 -3 C-20.3 -4.3 -20.7 -5.6 -21 -7 C-21.8 -7.3 -21.8 -7.3 -26 -9 Z M-129 -8 C-129 -5.7 -129 -3.4 -129 -1 C-128.3 -0.3 -127.7 0.3 -127 1 C-125.3 1 -123.7 1 -122 1 C-123.3 0.3 -124.6 -0.3 -126 -1 C-126.7 -3.3 -127.3 -5.6 -128 -8 C-128.3 -8 -128.7 -8 -129 -8 Z M-136 -5 C-135.5 -4.7 -135.5 -4.7 -133 -3 C-133 -3.7 -133 -4.3 -133 -5 C-134 -5 -135 -5 -136 -5 Z M-160 33 C-180.4 59.6 -189.5 89 -185.3 122.5 C-179.8 152.5 -164.2 176.4 -140.4 195.2 C-114.5 211.9 -85.2 219.1 -54.6 213.4 C-22.5 205.4 1.9 188.1 19.8 160.1 C35.2 131 37.5 101.3 28.3 69.8 C16.5 38.5 -4.1 17.4 -34 3 C-78.9 -14.5 -127.6 -2.4 -160 33 Z M-121 -4 C-120 -1 -120 -1 -120 -1 Z M-139 -3 C-139.7 -2.3 -140.3 -1.7 -141 -1 C-140.3 -1 -139.7 -1 -139 -1 C-137.9 1.6 -136.9 4.3 -136 7 C-134.7 6.3 -133.4 5.7 -132 5 C-133 5 -134 5 -135 5 C-135.7 3 -136.3 1 -137 -1 C-137.7 -1.7 -138.3 -2.3 -139 -3 Z M-135 -2 C-134.7 -0.7 -134.3 0.6 -134 2 C-133.7 1.3 -133.3 0.7 -133 0 C-133.7 -0.7 -134.3 -1.3 -135 -2 Z M-33 -3 C-33.7 -2.3 -34.3 -1.7 -35 -1 C-34 -1 -33 -1 -32 -1 C-32.3 -1.7 -32.7 -2.3 -33 -3 Z M-131 0 C-130 2 -130 2 -130 2 Z M-147 2 C-145.3 3.6 -143.7 5.3 -142 7 C-141.7 7.5 -141.7 7.5 -140 10 C-140 8.4 -140 6.7 -140 5 C-141 4 -142 3 -143 2 C-144.3 2 -145.6 2 -147 2 Z M-130 2 C-130.3 2.5 -130.3 2.5 -132 5 C-131 4.7 -130 4.3 -129 4 C-129.3 3.3 -129.7 2.7 -130 2 Z M-150 4 C-150.7 4.7 -151.3 5.3 -152 6 C-150.3 7.6 -148.7 9.3 -147 11 C-146.7 12 -146.3 13 -146 14 C-145 13.7 -144 13.3 -143 13 C-145 10 -147 7 -149 4 C-149.3 4 -149.7 4 -150 4 Z M-12 5 C-12 7 -12 9 -12 11 C-10 10.7 -8 10.3 -6 10 C-6.3 8 -6.7 6 -7 4 C-8.7 4 -10.4 4.6 -12 5 Z M5 11 C4 15 4 15 5 24 C5.7 23.3 6.3 22.7 7 22 C7 18.7 7 15.4 7 12 C6.3 11.7 5.7 11.3 5 11 Z M-160 16 C-160.3 17.6 -160.7 19.3 -161 21 C-160 21.2 -160 21.2 -155 22 C-155 20 -155 18 -155 16 C-156.7 16 -158.3 16 -160 16 Z M11 16 C11 16.7 11 17.3 11 18 C11.7 17.7 12.3 17.3 13 17 C12.3 16.7 11.7 16.3 11 16 Z M-2 18 C-1 19 -0 20 1 21 C1 20 1 19 1 18 C0 18 -1 18 -2 18 Z M9 24 C9 26 9 28 9 30 C9.7 28.7 10.3 27.4 11 26 C12.3 25 13.6 24 15 23 C15 22.3 15 21.7 15 21 C13 21 13 21 9 24 Z M18 24 C17 25.6 16 27.3 15 29 C14 30 13 31 12 32 C17 31 17 31 19 29 C19 27.4 19 25.7 19 24 C18.7 24 18.3 24 18 24 Z M-172 25 C-172.3 25.7 -172.7 26.3 -173 27 C-172 26.7 -171 26.3 -170 26 C-170.7 25.7 -171.3 25.3 -172 25 Z M-175 28 C-175 29.3 -175 30.6 -175 32 C-174.2 32.7 -174.2 32.7 -170 36 C-169.3 36.7 -168.7 37.3 -168 38 C-167.7 37 -167.3 36 -167 35 C-172 31 -172 31 -174 31 C-174.3 30 -174.7 29 -175 28 Z M-171 29 C-170.7 30 -170.3 31 -170 32 C-170 31 -170 30 -170 29 C-170.3 29 -170.7 29 -171 29 Z M-166 29 C-165.3 30.3 -164.7 31.6 -164 33 C-164.3 31.7 -164.7 30.4 -165 29 C-165.3 29 -165.7 29 -166 29 Z M22 29 C22 29.7 22 30.3 22 31 C21.7 31.2 21.7 31.2 20 32 C20 32.7 20 33.3 20 34 C19 35.6 18 37.3 17 39 C18.3 38.7 19.6 38.3 21 38 C22 36 23 34 24 32 C23.7 31 23.3 30 23 29 C22.7 29 22.3 29 22 29 Z M-179 34 C-179.3 34.7 -179.7 35.3 -180 36 C-179.3 36 -178.7 36 -178 36 C-178.3 35.3 -178.7 34.7 -179 34 Z M14 34 C14.3 35 14.7 36 15 37 C15 36 15 35 15 34 C14.7 34 14.3 34 14 34 Z M26 36 C24.3 37.7 22.7 39.3 21 41 C20.3 41.7 19.7 42.3 19 43 C22 43 22 43 29 38 C28.7 37.3 28.3 36.7 28 36 C27.3 36 26.7 36 26 36 Z M-173 39 C-172 41 -172 41 -172 41 Z M-183 40 C-183.3 40.7 -183.7 41.3 -184 42 C-177 46 -177 46 -173 45 C-174.3 44.3 -175.6 43.7 -177 43 C-179 42 -181 41 -183 40 Z M-173 42 C-172 44 -172 44 -172 44 Z M31 42 C29.7 42.7 29.7 42.7 23 46 C23 47 23 48 23 49 C26 47.3 28.9 45.7 32 44 C31.7 43.3 31.3 42.7 31 42 Z M-185 46 C-185.7 46.7 -186.3 47.3 -187 48 C-184.7 48.7 -182.4 49.3 -180 50 C-180.7 51.3 -181.3 52.6 -182 54 C-183.7 53.7 -185.3 53.3 -187 53 C-187.3 52.3 -187.7 51.7 -188 51 C-187 55 -187 55 -186 56 C-183.7 56 -181.4 56 -179 56 C-178.7 55 -178.3 54 -178 53 C-176.7 52.7 -175.4 52.3 -174 52 C-174.3 51.3 -174.7 50.7 -175 50 C-176 50.3 -177 50.7 -178 51 C-178.7 49.7 -179.3 48.4 -180 47 C-181.7 46.7 -183.3 46.3 -185 46 Z M33 46 C33.3 47 33.7 48 34 49 C34 48 34 47 34 46 C33.7 46 33.3 46 33 46 Z M28 47 C28 47.7 28 48.3 28 49 C29 48.7 30 48.3 31 48 C30 47.7 29 47.3 28 47 Z M-188 48 C-187 50 -187 50 -187 50 Z M25 51 C25 51.7 25 52.3 25 53 C26 52.7 27 52.3 28 52 C27 51.7 26 51.3 25 51 Z M36 51 C35.5 51.7 35.5 51.7 33 55 C32 55.7 31 56.3 30 57 C30.3 58 30.7 59 31 60 C30.3 60 29.7 60 29 60 C29.3 61 29.7 62 30 63 C34 58 34 58 37 53 C36.7 52.3 36.3 51.7 36 51 Z M27 55 C27 55.7 27 56.3 27 57 C27.7 57 28.3 57 29 57 C29 56.3 29 55.7 29 55 C28.3 55 27.7 55 27 55 Z M-192 57 C-192 57.7 -192 58.3 -192 59 C-190.3 59.7 -190.3 59.7 -182 63 C-181.7 62 -181.3 61 -181 60 C-184.6 59 -188.3 58 -192 57 Z M38 56 C37 56.7 36 57.3 35 58 C36.3 58 37.6 58 39 58 C38.7 57.3 38.3 56.7 38 56 Z M-194 62 C-194 63.3 -194 64.6 -194 66 C-188 67 -188 67 -185 67 C-184.7 67.7 -184.3 68.3 -184 69 C-184 68 -184 67 -184 66 C-189 64 -189 64 -193 64 C-193.3 63.3 -193.7 62.7 -194 62 Z M36 68 C35.3 69.7 34.7 71.3 34 73 C34.8 73.3 34.8 73.3 39 75 C39.7 73.3 40.3 71.7 41 70 C40.2 69.7 40.2 69.7 36 68 Z M-197 71 C-197 71.7 -197 72.3 -197 73 C-195.2 72.8 -195.2 72.8 -186 72 C-186.3 71 -186.7 70 -187 69 C-190.4 69 -193.7 70.3 -197 71 Z M-191 74 C-190 74.3 -189 74.7 -188 75 C-187.7 75.7 -187.3 76.3 -187 77 C-186.7 76 -186.3 75 -186 74 C-187.7 74 -189.3 74 -191 74 Z M-197 77 C-197.3 77.7 -197.7 78.3 -198 79 C-196.7 78.7 -195.4 78.3 -194 78 C-195 77.7 -196 77.3 -197 77 Z M-189 78 C-190.7 78.3 -192.3 78.7 -194 79 C-194 80.3 -194 81.6 -194 83 C-197 82 -197 82 -199 80 C-199 81.3 -199 82.6 -199 84 C-196 84.3 -193.1 84.7 -190 85 C-189.7 85.7 -189.3 86.3 -189 87 C-189 86 -189 85 -189 84 C-190 83.7 -191 83.3 -192 83 C-192.3 82.3 -192.7 81.7 -193 81 C-191.3 81 -189.7 81 -188 81 C-188.3 80 -188.7 79 -189 78 Z M36 83 C36.3 84.3 36.7 85.6 37 87 C38.5 86.8 38.5 86.8 46 86 C46.3 84.7 46.7 83.4 47 82 C43.4 82 39.6 82.6 36 83 Z M-200 88 C-199.7 88.7 -199.3 89.3 -199 90 C-198.3 89.3 -197.7 88.7 -197 88 C-198 88 -199 88 -200 88 Z M-193 88 C-192.7 88.2 -192.7 88.2 -191 89 C-190.7 89.7 -190.3 90.3 -190 91 C-190 90 -190 89 -190 88 C-191 88 -192 88 -193 88 Z M42 87 C42 88 42 89 42 90 C40.3 90 38.7 90 37 90 C37.3 91 37.7 92 38 93 C41.3 92.7 44.6 92.3 48 92 C47.7 90.7 47.3 89.4 47 88 C46.3 88.3 46.3 88.3 43 90 C42.7 89 42.3 88 42 87 Z M-196 91 C-196.3 91.7 -196.7 92.3 -197 93 C-198.3 93 -199.6 93 -201 93 C-200.7 94 -200.3 95 -200 96 C-197.7 96 -195.4 96 -193 96 C-192 96.3 -191 96.7 -190 97 C-190 96 -190 95 -190 94 C-191.7 94 -193.3 94 -195 94 C-195 93.3 -195 92.7 -195 92 C-194.3 91.7 -193.7 91.3 -193 91 C-194 91 -195 91 -196 91 Z M47 95 C45.5 95.2 45.5 95.2 38 96 C38 96.7 38 97.3 38 98 C41.3 98 44.6 98 48 98 C47.7 97 47.3 96 47 95 Z M-201 99 C-200.7 100.3 -200.3 101.6 -200 103 C-196.7 103 -193.4 103 -190 103 C-190.3 101.7 -190.7 100.4 -191 99 C-194.3 99 -197.6 99 -201 99 Z M45 100 C46 101.3 47 102.6 48 104 C44.7 103.7 41.4 103.3 38 103 C38.3 104.3 38.7 105.6 39 107 C42 106.3 44.9 105.7 48 105 C47 106.3 46 107.6 45 109 C46.3 109 47.6 109 49 109 C49 106.4 49 103.7 49 101 C47.7 100.7 46.4 100.3 45 100 Z M-201 105 C-200.7 106.3 -200.3 107.6 -200 109 C-196.7 109 -193.4 109 -190 109 C-190.3 108 -190.7 107 -191 106 C-192.5 106.2 -192.5 106.2 -200 107 C-200.3 106.3 -200.7 105.7 -201 105 Z M38 111 C38 112 38 113 38 114 C41.3 114.3 44.6 114.7 48 115 C47.7 114 47.3 113 47 112 C44 111.7 41.1 111.3 38 111 Z M-201 112 C-201 113.7 -201 115.3 -201 117 C-197.4 117 -193.7 117 -190 117 C-190.3 115.7 -190.7 114.4 -191 113 C-191.3 113.3 -191.7 113.7 -192 114 C-194.6 114.3 -197.3 114.7 -200 115 C-199.7 114 -199.3 113 -199 112 C-199.7 112 -200.3 112 -201 112 Z M42 115 C41.7 115.7 41.3 116.3 41 117 C42.3 116.7 43.6 116.3 45 116 C44 115.7 43 115.3 42 115 Z M37 116 C37 117 37 118 37 119 C38 118.7 39 118.3 40 118 C39 117.3 38 116.7 37 116 Z M47 116 C46.3 117.3 45.7 118.6 45 120 C46 120 47 120 48 120 C47.7 118.7 47.3 117.4 47 116 Z M-200 118 C-200 118.7 -200 119.3 -200 120 C-199 119.7 -198 119.3 -197 119 C-198 118.7 -199 118.3 -200 118 Z M37 120 C37 121 37 122 37 123 C37.7 122.7 38.3 122.3 39 122 C38.3 121.3 37.7 120.7 37 120 Z M40 124 C40 124.7 40 125.3 40 126 C38.7 126 37.4 126 36 126 C36.3 127 36.7 128 37 129 C40 128 42.9 127 46 126 C46.3 125 46.7 124 47 123 C45 123 45 123 40 124 Z M-190 125 C-190 125.7 -190 126.3 -190 127 C-191 127.3 -192 127.7 -193 128 C-192.7 128.2 -192.7 128.2 -191 129 C-190 128 -189 127 -188 126 C-188.7 125.7 -189.3 125.3 -190 125 Z M-197 127 C-197 128 -197 129 -197 130 C-196 129.3 -195 128.7 -194 128 C-195 127.7 -196 127.3 -197 127 Z M44 128 C44.3 128.5 44.3 128.5 46 131 C46 130 46 129 46 128 C45.3 128 44.7 128 44 128 Z M-194 129 C-193 131 -193 131 -193 131 Z M-198 132 C-198 133 -198 134 -198 135 C-196.2 134.8 -196.2 134.8 -187 134 C-187 133 -187 132 -187 131 C-190.7 131 -194.3 131.5 -198 132 Z M33 138 C33.7 140 34.3 142 35 144 C36.7 143.3 38.3 142.7 40 142 C39.8 141.2 39.8 141.2 39 137 C36 137 36 137 33 138 Z M-196 139 C-195.7 139.7 -195.3 140.3 -195 141 C-194.7 140.3 -194.3 139.7 -194 139 C-194.7 139 -195.3 139 -196 139 Z M-186 139 C-186 140.3 -186 141.6 -186 143 C-188.6 143.7 -191.3 144.3 -194 145 C-193.7 146 -193.3 147 -193 148 C-190.4 146.7 -187.7 145.4 -185 144 C-185 142.3 -185 140.7 -185 139 C-185.3 139 -185.7 139 -186 139 Z M-186 147 C-185.3 147.3 -185.3 147.3 -182 149 C-182 148.3 -182 147.7 -182 147 C-183.3 147 -184.6 147 -186 147 Z M-182 149 C-181 151 -181 151 -181 151 Z M29 149 C28.7 150 28.3 151 28 152 C29 151.7 30 151.3 31 151 C30.3 150.3 29.7 149.7 29 149 Z M-192 150 C-191.7 151 -191.3 152 -191 153 C-190.7 152 -190.3 151 -190 150 C-190.7 150 -191.3 150 -192 150 Z M-188 151 C-187.3 151.7 -186.7 152.3 -186 153 C-186 152.3 -186 151.7 -186 151 C-186.7 151 -187.3 151 -188 151 Z M-190 155 C-189.7 156 -189.3 157 -189 158 C-186 156.7 -183.1 155.4 -180 154 C-180 153.3 -180 152.7 -180 152 C-183 152 -183 152 -190 155 Z M26 157 C26.3 157.7 26.7 158.3 27 159 C30.7 158.1 34.4 157.1 38 156 C38.3 155.3 38.7 154.7 39 154 C35 154 35 154 26 157 Z M-178 158 C-178 158.7 -178 159.3 -178 160 C-180 160.7 -182 161.3 -184 162 C-184.3 162.2 -184.3 162.2 -186 163 C-186 162 -186 161 -186 160 C-186.7 160 -187.3 160 -188 160 C-187.3 161.7 -186.7 163.3 -186 165 C-184.3 164.3 -182.7 163.7 -181 163 C-179.3 162.3 -177.7 161.7 -176 161 C-176.7 160 -177.3 159 -178 158 Z M23 161 C23.3 162 23.7 163 24 164 C25.3 164.7 25.3 164.7 32 168 C32 167 32 166 32 165 C30.5 164.3 30.5 164.3 23 161 Z M33 161 C33.7 161.7 34.3 162.3 35 163 C35 162.3 35 161.7 35 161 C34.3 161 33.7 161 33 161 Z M-175 164 C-179 171 -179 171 -180 174 C-178.7 173.7 -177.4 173.3 -176 173 C-176.3 172 -176.7 171 -177 170 C-176.3 170 -175.7 170 -175 170 C-174.3 168.3 -173.7 166.7 -173 165 C-173.7 164.7 -174.3 164.3 -175 164 Z M21 164 C20.8 164.7 20.8 164.7 20 168 C21 168 22 168 23 168 C22.3 166.7 21.7 165.4 21 164 Z M26 166 C25.7 166.7 25.3 167.3 25 168 C25.7 168 26.3 168 27 168 C26.7 167.3 26.3 166.7 26 166 Z M-171 170 C-170.7 171 -170.3 172 -170 173 C-170 172 -170 171 -170 170 C-170.3 170 -170.7 170 -171 170 Z M-174 171 C-174.3 171.7 -174.7 172.3 -175 173 C-174 172.7 -173 172.3 -172 172 C-172.7 171.7 -173.3 171.3 -174 171 Z M19 170 C18.3 170.7 17.7 171.3 17 172 C19 172.7 21 173.3 23 174 C24 175 25 176 26 177 C25.3 175.3 24.7 173.7 24 172 C23.2 171.7 23.2 171.7 19 170 Z M29 170 C28.3 170.7 27.7 171.3 27 172 C28 172 29 172 30 172 C29.7 171.3 29.3 170.7 29 170 Z M15 173 C15.3 175 15.7 177 16 179 C16.5 179.3 16.5 179.3 19 181 C20 180.7 21 180.3 22 180 C20.3 178.7 18.7 177.4 17 176 C16.3 175 15.7 174 15 173 Z M-169 173 C-169.7 173.7 -170.3 174.3 -171 175 C-169.7 174.7 -168.4 174.3 -167 174 C-167.7 173.7 -168.3 173.3 -169 173 Z M-166 176 C-166 177 -166 178 -166 179 C-166.7 179.3 -166.7 179.3 -170 181 C-171 181.7 -172 182.3 -173 183 C-172.7 184 -172.3 185 -172 186 C-165 180 -165 180 -164 178 C-164.7 177.3 -165.3 176.7 -166 176 Z M11 178 C11 181 11 181 12 184 C11.7 185.3 11.3 186.6 11 188 C12.3 188.7 13.6 189.3 15 190 C16.3 188.7 17.6 187.4 19 186 C13 179 13 179 11 178 Z M-165 183 C-165.5 183.7 -165.5 183.7 -168 187 C-167.7 188 -167.3 189 -167 190 C-165.7 188.3 -164.4 186.7 -163 185 C-161.7 184.3 -160.4 183.7 -159 183 C-161 183 -163 183 -165 183 Z M-158 185 C-159 186.7 -160 188.3 -161 190 C-162.3 191 -163.6 192 -165 193 C-163.3 193 -161.7 193 -160 193 C-159 191.7 -158 190.4 -157 189 C-157.3 187.7 -157.7 186.4 -158 185 Z M5 185 C5 188 5 188 7 191 C5 190.3 3 189.7 1 189 C1 190 1 191 1 192 C2.3 192 3.6 192 5 192 C5.3 193.7 5.7 195.3 6 197 C10 196 10 196 13 192 C11 190.3 9 188.7 7 187 C6.3 186.3 5.7 185.7 5 185 Z M-167 190 C-166 192 -166 192 -166 192 Z M-156 191 C-156.3 192 -156.7 193 -157 194 C-155.7 195.7 -154.4 197.3 -153 199 C-154 194 -154 194 -156 191 Z M-151 192 C-150.7 193.3 -150.3 194.6 -150 196 C-150 194.7 -150 193.4 -150 192 C-150.3 192 -150.7 192 -151 192 Z M-3 192 C-3.3 192.7 -3.7 193.3 -4 194 C-2 196.6 -0 199.3 2 202 C2.7 201.3 3.3 200.7 4 200 C2 197.4 0 194.7 -2 192 C-2.3 192 -2.7 192 -3 192 Z M-159 195 C-159.3 195.7 -159.7 196.3 -160 197 C-159.3 197.7 -158.7 198.3 -158 199 C-158.3 197.7 -158.7 196.4 -159 195 Z M-147 195 C-148.3 197.3 -149.6 199.6 -151 202 C-151.7 202.7 -152.3 203.3 -153 204 C-152 204.3 -151 204.7 -150 205 C-148.3 202.7 -146.7 200.4 -145 198 C-145.3 197 -145.7 196 -146 195 C-146.3 195 -146.7 195 -147 195 Z M-8 196 C-7.7 197.3 -7.3 198.6 -7 200 C-6.7 198.7 -6.3 197.4 -6 196 C-6.7 196 -7.3 196 -8 196 Z M-4 198 C-3.3 198.7 -2.7 199.3 -2 200 C-1.7 199.3 -1.3 198.7 -1 198 C-2 198 -3 198 -4 198 Z M-12 199 C-11.3 199.7 -10.7 200.3 -10 201 C-10 200.3 -10 199.7 -10 199 C-10.7 199 -11.3 199 -12 199 Z M-9 202 C-8 204 -8 204 -8 204 Z M-17 203 C-16.7 204 -16.3 205 -16 206 C-12.3 206.7 -8.7 207.4 -5 208 C-7 205 -7 205 -12.1 203.8 C-13.7 203.5 -15.3 203.3 -17 203 Z M-3 203 C-2.3 203.7 -1.7 204.3 -1 205 C-0.3 204.3 0.3 203.7 1 203 C-0.3 203 -1.6 203 -3 203 Z M-138 206 C-137.7 207.7 -137.3 209.3 -137 211 C-135.3 211 -133.7 211 -132 211 C-131 208 -131 208 -132 205 C-136 205 -136 205 -138 206 Z M-22 205 C-22.7 205.7 -23.3 206.3 -24 207 C-23 207 -22 207 -21 207 C-20.3 209 -19.7 211 -19 213 C-18.7 213.7 -18.3 214.3 -18 215 C-17.3 215 -16.7 215 -16 215 C-16.7 213.3 -17.3 211.7 -18 210 C-18.7 208.3 -19.3 206.7 -20 205 C-20.7 205 -21.3 205 -22 205 Z M-15 206 C-14 208 -14 208 -14 208 Z M-26 207 C-26.3 208 -26.7 209 -27 210 C-26.3 210.7 -25.7 211.3 -25 212 C-24.7 210.3 -24.3 208.7 -24 207 C-24.7 207 -25.3 207 -26 207 Z M-13 209 C-12.7 210.3 -12.3 211.6 -12 213 C-11.3 212 -10.7 211 -10 210 C-11 209.7 -12 209.3 -13 209 Z M-122 210 C-122 210.7 -122 211.3 -122 212 C-120.7 211.7 -119.4 211.3 -118 211 C-119.3 210.7 -120.6 210.3 -122 210 Z M-23 210 C-22.3 211.3 -21.7 212.6 -21 214 C-21.3 212.7 -21.7 211.4 -22 210 C-22.3 210 -22.7 210 -23 210 Z M-117 212 C-118.3 215.3 -119.6 218.6 -121 222 C-120 222.3 -119 222.7 -118 223 C-117 219.4 -116 215.7 -115 212 C-115.7 212 -116.3 212 -117 212 Z M-38 213 C-40 216 -40 216 -40 219 C-39.2 219.2 -39.2 219.2 -35 220 C-34.3 218.3 -33.7 216.7 -33 215 C-33.8 214.7 -33.8 214.7 -38 213 Z M-121 214 C-121 215 -121 216 -121 217 C-120.3 216.7 -119.7 216.3 -119 216 C-119.7 215.3 -120.3 214.7 -121 214 Z M-111 214 C-111.2 214.7 -111.2 214.7 -112 218 C-111.3 218 -110.7 218 -110 218 C-109.7 219.7 -109.3 221.3 -109 223 C-108.7 224 -108.3 225 -108 226 C-107.3 226 -106.7 226 -106 226 C-107 222 -107 222 -110 214 C-110.3 214 -110.7 214 -111 214 Z M-23 215 C-23 215.7 -23 216.3 -23 217 C-22 216.7 -21 216.3 -20 216 C-21 215.7 -22 215.3 -23 215 Z M-105 216 C-104.7 217 -104.3 218 -104 219 C-104 218.3 -104 217.7 -104 217 C-103.3 216.7 -102.7 216.3 -102 216 C-103 216 -104 216 -105 216 Z M-56 217 C-54.7 218 -53.4 219 -52 220 C-51.7 219 -51.3 218 -51 217 C-52.7 217 -54.3 217 -56 217 Z M-125 218 C-124.7 219 -124.3 220 -124 221 C-123.3 220.7 -122.7 220.3 -122 220 C-123 219.3 -124 218.7 -125 218 Z M-100 218 C-102 221 -102 221 -101 227 C-100.7 227 -100.3 227 -100 227 C-99.7 224.7 -99.3 222.4 -99 220 C-98.7 219.3 -98.3 218.7 -98 218 C-98.7 218 -99.3 218 -100 218 Z M-63 218 C-62.7 221.6 -62.3 225.3 -62 229 C-61 228.7 -60 228.3 -59 228 C-59.3 227.3 -59.7 226.7 -60 226 C-60 223.4 -60 220.7 -60 218 C-61 218 -62 218 -63 218 Z M-58 218 C-57.7 219.7 -57.3 221.3 -57 223 C-56 223.2 -56 223.2 -51 224 C-50.7 225 -50.3 226 -50 227 C-50.2 226.2 -50.2 226.2 -51 222 C-52.7 221.7 -54.3 221.3 -56 221 C-56.7 220 -57.3 219 -58 218 Z M-113 219 C-112 221 -112 221 -112 221 Z M-94 219 C-94.3 221.6 -94.7 224.3 -95 227 C-94.3 227 -93.7 227 -93 227 C-92.7 224.7 -92.3 222.4 -92 220 C-92.7 219.7 -93.3 219.3 -94 219 Z M-80 219 C-79.7 219.2 -79.7 219.2 -78 220 C-78 223 -78 225.9 -78 229 C-78.3 229.2 -78.3 229.2 -80 230 C-78.3 230 -76.7 230 -75 230 C-75.7 229.7 -76.3 229.3 -77 229 C-77 226 -77 223.1 -77 220 C-76.3 219.7 -75.7 219.3 -75 219 C-76.7 219 -78.3 219 -80 219 Z M-74 219 C-73.7 220.3 -73.3 221.6 -73 223 C-72.7 222.3 -72.3 221.7 -72 221 C-71 221 -70 221 -69 221 C-69 224 -69 226.9 -69 230 C-68 230 -67 230 -66 230 C-66 226.4 -66 222.7 -66 219 C-68.6 219 -71.3 219 -74 219 Z M-84 220 C-84 222.6 -84 225.3 -84 228 C-83.3 227.7 -82.7 227.3 -82 227 C-82 225 -82 223 -82 221 C-82.7 220.7 -83.3 220.3 -84 220 Z M-106 221 C-105 223 -105 223 -105 223 Z M-114 222 C-114.3 222.7 -114.7 223.3 -115 224 C-114.3 224 -113.7 224 -113 224 C-113.3 223.3 -113.7 222.7 -114 222 Z M-57 225 C-56.7 226 -56.3 227 -56 228 C-54.7 227.7 -53.4 227.3 -52 227 C-52.8 226.7 -52.8 226.7 -57 225 Z M-90 226 C-90.3 227 -90.7 228 -91 229 C-90 228.7 -89 228.3 -88 228 C-88.7 227.3 -89.3 226.7 -90 226 Z " fill="#FFFFFF" transform="translate(210,28)"/>
<path d="M0 0 C22.9 18.8 38.1 42.8 42.6 72.4 C44.2 104.3 38.2 132.7 16.6 157.4 C14.6 159.7 12.6 162 10.6 164.4 C-12.8 184.7 -40.2 195.8 -71.4 194.4 C-104.6 190.3 -131 176.7 -151.9 150.5 C-168.9 125.4 -174.8 99.1 -171.4 69 C-165.2 38.4 -149.4 14.9 -124.4 -3.6 C-85.8 -28.4 -37.2 -26.7 0 0 Z M-140.5 13.1 C-161.7 35.9 -170.1 62.5 -169.7 93 C-168.3 123.5 -153 147.9 -131.4 168.4 C-108.3 186.6 -82.3 192.9 -53.4 191.4 C-23.5 187.6 0.2 173.3 19.6 150.4 C36.2 125.3 43.3 99.4 39.4 69.3 C35.5 50.2 28.5 33.1 15.6 18.4 C14.2 16.7 12.8 15.1 11.4 13.4 C-8.8 -7.6 -35.2 -17.9 -64.1 -18.9 C-94.5 -17.9 -118.3 -7.5 -140.5 13.1 Z " fill="#FFFFFF" transform="translate(198.4375,46.625)"/>
<path d="M0 0 C6.3 4.5 11.7 9.5 17 15 C15.7 15.3 14.4 15.7 13 16 C12.4 15.4 12.4 15.4 9.1 12.1 C-5.3 -2.2 -23.3 -7 -43 -7 C-48.3 -6 -53.7 -5 -59 -4 C-61.6 -4 -64.3 -4 -67 -4 C-47.6 -16.9 -18.7 -10.5 0 0 Z " fill="#FFFFFF" transform="translate(172,72)"/>
<path d="M0 0 C0 0.3 0 0.7 0 1 C-8.6 1 -17.2 1 -26 1 C-26 0.7 -26 0.3 -26 0 C-17 -1.3 -9 -1.1 0 0 Z " fill="#FFFFFF" transform="translate(147,67)"/>
<path d="M0 0 C12.9 -0 25.7 0.1 38.6 0.4 C40.4 0.4 42.1 0.4 44 0.5 C63.5 0.9 63.5 0.9 72 8 C75.5 17.4 76.6 23.8 73 33.2 C65 46 53.6 51.8 39.2 55.9 C30.3 57.5 22 58 13 58 C12 61 11 63.9 10 67 C7.8 72.7 5.6 78.3 3.4 83.9 C2.8 85.4 2.8 85.4 -0.2 92.9 C-3 100 -3 100 -4 102 C-1.7 102.7 0.6 103.3 3 104 C3.3 102.3 3.7 100.7 4 99 C7.2 89.4 10.2 85 19 80 C19.8 79.7 19.8 79.7 24 78 C24 75.7 24 73.4 24 71 C28 66 28 66 37 62 C44 62 44 62 47 63 C47 62.3 47 61.7 47 61 C48.3 61 49.6 61 51 61 C48 70 48 70 44 78 C43.5 78.2 43.5 78.2 41 79 C41.4 77 41.7 75.1 42.1 73.1 C42.2 72.1 42.2 72.1 43 67 C42.7 66.7 42.3 66.3 42 66 C40.8 66.2 40.8 66.2 35 67 C33 70 33 70 34 76 C31 79 31 79 26.2 80.8 C17.5 84.5 14.2 88.6 10 97 C9.2 100.6 8.6 104.3 8 108 C6.7 107.3 5.4 106.7 4 106 C3.7 106.3 3.3 106.7 3 107 C-3.9 107.2 -10.7 107.4 -17.6 107.6 C-19.5 107.6 -21.5 107.6 -23.5 107.7 C-28.3 107.8 -33.2 107.9 -38 108 C-35 111 -35 111 -27.7 111.1 C-21.8 111 -15.8 110.9 -9.8 110.8 C-2 112 -2 112 2 117.3 C3 119.2 4 121.1 5 123 C14 127 14 127 20 129 C21 130 22 131 23 132 C30.3 132.3 37.6 132.5 44.9 132.4 C46 132.4 46 132.4 51.2 132.5 C66.5 132.5 66.5 132.5 71 128 C73.1 127 75.3 125.9 77.5 124.9 C96.4 115.1 106.4 100.8 113 81 C112.3 80.7 111.7 80.3 111 80 C114.6 78.3 118.3 76.6 122 75 C122.7 75.3 123.3 75.7 124 76 C121.7 77.3 119.4 78.6 117 80 C115.2 85 113.6 90 112 95 C102.1 113.8 88.4 123.5 70 133 C69.3 133.7 68.7 134.3 68 135 C60.4 135.5 52.8 135.4 45.1 135.4 C43 135.4 40.8 135.4 38.6 135.4 C36.6 135.5 34.5 135.5 32.4 135.5 C31.4 135.5 31.4 135.5 26.6 135.5 C22 135 22 135 18 131 C14.7 130 11.3 129 8 128 C2.4 124.2 -0.8 121.6 -3 115 C-5.3 115 -7.6 115 -10 115 C-13 115 -16 115 -19.1 114.9 C-20.6 114.9 -20.6 114.9 -28.2 114.9 C-36 114 -36 114 -42 107 C-41 104 -41 104 -33 99 C-29.7 92.5 -26.8 86 -24 79.3 C-23 77 -22 74.7 -21 72.4 C-20 70 -19 67.6 -17.9 65.1 C-17 62.8 -16 60.5 -14.9 58.1 C-13 53.4 -11 48.7 -9 44.1 C-6.9 39.2 -4.9 34.4 -2.8 29.6 C-1.8 27.2 -0.8 24.9 0.2 22.5 C1.2 20.4 2.1 18.3 3 16.1 C5 11 5 11 5 7 C4.2 6.7 4.2 6.7 0 5 C0 3.3 0 1.7 0 0 Z M33 10 C29.5 18 26.1 26 22.8 34.1 C22.2 35.4 22.2 35.4 19.5 42 C18.7 44 17.8 46 17 48 C25.1 50 33.4 44.8 40.5 41.2 C45.6 37.6 49.1 33.7 52 28 C52 19 52 19 48 13 C41 10 41 10 33 10 Z " fill="#FFFFFF" transform="translate(87,69)"/>
<path d="M0 0 C3 0 5.9 0 9 0 C9.3 0.7 9.7 1.3 10 2 C7 2 4.1 2 1 2 C0.7 1.3 0.3 0.7 0 0 Z " fill="#FFFFFF" transform="translate(159,75)"/>
<path d="M0 0 C-2 4 -2 4 -9 11 C-19.2 25.6 -24.5 38.8 -25.5 56.5 C-26 64 -26 64 -28 66 C-32.4 52.8 -27.4 37.4 -22.4 25.2 C-9 0 -9 0 0 0 Z " fill="#FFFFFF" transform="translate(91,77)"/>
<path d="M0 0 C4.3 0 8.6 0 13 0 C13.3 0.7 13.7 1.3 14 2 C9.7 2 5.4 2 1 2 C0.7 1.3 0.3 0.7 0 0 Z " fill="#FFFFFF" transform="translate(161,79)"/>
<path d="M0 0 C4.9 0 9.9 0 15 0 C15.3 0.7 15.7 1.3 16 2 C11.1 2 6.1 2 1 2 C0.7 1.3 0.3 0.7 0 0 Z " fill="#FFFFFF" transform="translate(164,83)"/>
<path d="M0 0 C4.3 0 8.6 0 13 0 C13.3 0.7 13.7 1.3 14 2 C9.1 2 4.1 2 -1 2 C-0.7 1.3 -0.3 0.7 0 0 Z " fill="#FFFFFF" transform="translate(124,87)"/>
<path d="M0 0 C5.6 0 11.2 0 17 0 C17 0.3 17 0.7 17 1 C11.4 1 5.8 1 0 1 C0 0.7 0 0.3 0 0 Z " fill="#FFFFFF" transform="translate(166,87)"/>
<path d="M0 0 C6.1 -0.1 12.2 -0.1 18.4 -0.2 C20.1 -0.2 21.8 -0.2 23.6 -0.3 C35.8 -0.3 43.9 0.2 54 7 C62 16.3 62.8 20.9 62 33 C58.6 41.5 55.6 45.4 49 52 C48.3 51.7 47.7 51.3 47 51 C47.6 50.5 47.6 50.5 50.7 47.7 C56.8 41.1 59.7 35.3 60.6 26.4 C60 21 60 21 56 12 C55 11.3 54 10.7 53 10 C53.3 11 53.3 11 55 16 C55.9 25.3 53.9 31 49 39 C33.9 55.3 13.9 57.3 -7 59 C-9.3 64.6 -11.6 70.2 -14 76 C-14.3 76 -14.7 76 -15 76 C-16 72.7 -17 69.4 -18 66 C-15.4 64 -12.7 62 -10 60 C-8 56 -8 56 -9 50 C-13 47 -13 47 -18 46 C-18.3 46.8 -18.3 46.8 -20 51 C-21.7 52 -23.3 53 -25 54 C-25.7 53.7 -26.3 53.3 -27 53 C-25.3 48.7 -23.7 44.4 -22 40 C-24 39.7 -26 39.3 -28 39 C-26 36 -26 36 -20.4 33.2 C-10.5 28.2 -5.2 23.4 -1 13 C0 4 0 4 0 0 Z M12 10 C7.1 22.2 2.1 34.4 -3 47 C3.2 49.1 10.3 44.3 16 42 C23.6 37.8 25.2 35.7 30 28 C31 20 31 20 28 15 C21.2 9.6 21.1 10 12 10 Z " fill="#FFFFFF" transform="translate(167,90)"/>
<path d="M0 0 C4.6 0 9.2 0 14 0 C14 1 14 2 14 3 C9.1 3 4.1 3 -1 3 C-0.7 2 -0.3 1 0 0 Z " fill="#FFFFFF" transform="translate(123,91)"/>
<path d="M0 0 C5.3 0 10.6 0 16 0 C16 0.7 16 1.3 16 2 C10.7 2 5.4 2 0 2 C0 1.3 0 0.7 0 0 Z " fill="#FFFFFF" transform="translate(120,96)"/>
<path d="M0 0 C5 0 9.9 0 15 0 C15 0.7 15 1.3 15 2 C9.7 2 4.4 2 -1 2 C-0.7 1.3 -0.3 0.7 0 0 Z " fill="#FFFFFF" transform="translate(119,100)"/>
<path d="M0 0 C4.6 0 9.2 0 14 0 C13.7 0.7 13.3 1.3 13 2 C8.7 2 4.4 2 0 2 C0 1.3 0 0.7 0 0 Z " fill="#FFFFFF" transform="translate(117,104)"/>
<path d="M0 0 C2 0 4 0 6 0 C5.7 1 5.3 2 5 3 C3 3 1 3 -1 3 C-0.7 2 -0.3 1 0 0 Z " fill="#FFFFFF" transform="translate(72,108)"/>
<path d="M0 0 C3 0 5.9 0 9 0 C8.7 0.7 8.3 1.3 8 2 C6.5 2.2 6.5 2.2 -1 3 C-0.7 2 -0.3 1 0 0 Z " fill="#FFFFFF" transform="translate(116,108)"/>
<path d="M0 0 C4 0 7.9 0 12 0 C12 1 12 2 12 3 C8 3 4.1 3 0 3 C0 2 0 1 0 0 Z " fill="#FFFFFF" transform="translate(184,108)"/>
<path d="M0 0 C4.6 0 9.2 0 14 0 C13.7 0.7 13.3 1.3 13 2 C8.7 2 4.4 2 0 2 C0 1.3 0 0.7 0 0 Z " fill="#FFFFFF" transform="translate(182,113)"/>
<path d="M0 0 C4.6 0 9.2 0 14 0 C14 0.7 14 1.3 14 2 C9.4 2 4.8 2 0 2 C0 1.3 0 0.7 0 0 Z " fill="#FFFFFF" transform="translate(180,117)"/>
<path d="M0 0 C4.3 0 8.6 0 13 0 C12.7 0.7 12.3 1.3 12 2 C7.7 2 3.4 2 -1 2 C-0.7 1.3 -0.3 0.7 0 0 Z " fill="#FFFFFF" transform="translate(179,121)"/>
<path d="M0 0 C3.3 0 6.6 0 10 0 C9.7 0.7 9.3 1.3 9 2 C6 2 3.1 2 0 2 C0 1.3 0 0.7 0 0 Z " fill="#FFFFFF" transform="translate(177,125)"/>
<path d="M0 0 C3 0 5.9 0 9 0 C8.3 0.7 7.7 1.3 7 2 C4.4 2 1.7 2 -1 2 C-0.7 1.3 -0.3 0.7 0 0 Z " fill="#FFFFFF" transform="translate(105,134)"/>
<path d="M0 0 C1.3 0.3 2.6 0.7 4 1 C3 6 3 6 -1.4 9.2 C-2.9 10.1 -4.4 11 -6 12 C-7 12.7 -8 13.3 -9 14 C-8.2 15 -8.2 15 -4 20 C-4 30.4 -7 35 -14.2 42.3 C-26.2 51.6 -37 53.6 -52 53 C-59 50 -59 50 -62 46 C-62 45 -62 44 -62 43 C-59.4 43 -56.7 43 -54 43 C-53.7 42.3 -53.3 41.7 -53 41 C-51.7 42.7 -50.4 44.3 -49 46 C-43.1 48.9 -38.5 48.4 -32 48 C-24.1 45 -21.7 42.6 -16 36 C-13 29 -13 29 -13 21 C-14.3 19.7 -15.6 18.4 -17 17 C-26 18 -26 18 -33 22 C-34.3 24.6 -35.6 27.3 -37 30 C-36.3 32 -35.7 34 -35 36 C-34.3 35.8 -34.3 35.8 -31 35 C-30.3 34.8 -30.3 34.8 -27 34 C-29 38 -29 38 -33 41 C-39 42 -39 42 -44 39 C-44.2 38.8 -44.2 38.8 -45 38 C-44 28.8 -42.6 24.9 -35.4 19.1 C-29 15.4 -22.5 12.7 -15.7 9.9 C-2.2 4.4 -2.2 4.4 0 0 Z " fill="#FFFFFF" transform="translate(150,138)"/>
<path d="M0 0 C2.3 0 4.6 0 7 0 C6.7 0.7 6.3 1.3 6 2 C4 2.3 2 2.7 0 3 C0 2 0 1 0 0 Z " fill="#FFFFFF" transform="translate(100,146)"/>
<path d="M0 0 C0 1 0 2 0 3 C-4 3 -7.9 3 -12 3 C-12 2.7 -12 2.3 -12 2 C-4 0 -4 0 0 0 Z " fill="#FFFFFF" transform="translate(198,150)"/>
<path d="M0 0 C10.6 0 21.1 0 32 0 C31.7 0.7 31.3 1.3 31 2 C20.8 2 10.5 2 0 2 C0 1.3 0 0.7 0 0 Z " fill="#FFFFFF" transform="translate(165,155)"/>
<path d="M0 0 C10.6 0 21.1 0 32 0 C32 0.7 32 1.3 32 2 C21.4 2 10.9 2 0 2 C0 1.3 0 0.7 0 0 Z " fill="#FFFFFF" transform="translate(163,159)"/>
<path d="M0 0 C-1 9 -1 9 -5 15 C-5.3 14 -5.7 13 -6 12 C-8 11.3 -10 10.7 -12 10 C-12.7 9.7 -13.3 9.3 -14 9 C-13 4 -13 4 -9 0 C-5 -1 -5 -1 0 0 Z " fill="#FFFFFF" transform="translate(136,161)"/>
<path d="M0 0 C10.2 0 20.5 0 31 0 C31 0.7 31 1.3 31 2 C20.4 2 9.9 2 -1 2 C-0.7 1.3 -0.3 0.7 0 0 Z " fill="#FFFFFF" transform="translate(162,163)"/>
<path d="M0 0 C9.9 0 19.8 0 30 0 C29.7 1 29.3 2 29 3 C19.1 3 9.2 3 -1 3 C-0.7 2 -0.3 1 0 0 Z " fill="#FFFFFF" transform="translate(161,167)"/>
<path d="M0 0 C9.9 0 19.8 0 30 0 C29.7 0.7 29.3 1.3 29 2 C19.4 2 9.9 2 0 2 C0 1.3 0 0.7 0 0 Z " fill="#FFFFFF" transform="translate(158,172)"/>
<path d="M0 0 C9.2 0 18.5 0 28 0 C27.7 0.7 27.3 1.3 27 2 C17.8 2 8.5 2 -1 2 C-0.7 1.3 -0.3 0.7 0 0 Z " fill="#FFFFFF" transform="translate(157,176)"/>
<path d="M0 0 C1 3 1 3 -2 11 C-0 12 2 13 4 14 C4 15.3 4 16.6 4 18 C-6.6 18 -17.1 18 -28 18 C-24 16 -24 16 -19.3 14.3 C-13.7 11.9 -9.7 8.8 -5 5 C-4.3 5 -3.7 5 -3 5 C-2.3 3.7 -1.7 2.4 -1 1 C-0.7 0.7 -0.3 0.3 0 0 Z " fill="#FFFFFF" transform="translate(146,179)"/>
<path d="M0 0 C8.6 0 17.2 0 26 0 C25.7 0.7 25.3 1.3 25 2 C16.8 2 8.5 2 0 2 C0 1.3 0 0.7 0 0 Z " fill="#FFFFFF" transform="translate(155,180)"/>
<path d="M0 0 C1 1 2 2 3 3 C4 3 5 3 6 3 C6 2 6 1 6 0 C6.7 0 7.3 0 8 0 C7.7 1.7 7.3 3.3 7 5 C5.3 5 3.7 5 2 5 C1.3 4.3 0.7 3.7 0 3 C0 2 0 1 0 0 Z " fill="#FFFFFF" transform="translate(202,183)"/>
<path d="M0 0 C7.3 0 14.5 0 22 0 C21.7 0.5 21.7 0.5 20 3 C15.2 3.3 15.2 3.3 9.4 3.2 C7.4 3.2 5.5 3.1 3.5 3.1 C2.8 3.1 2.8 3.1 -1 3 C-0.7 2 -0.3 1 0 0 Z " fill="#FFFFFF" transform="translate(154,184)"/>
<path d="M0 0 C5.9 0 11.9 0 18 0 C16 2 16 2 7.4 2.1 C6 2.1 6 2.1 -1 2 C-0.7 1.3 -0.3 0.7 0 0 Z " fill="#FFFFFF" transform="translate(152,189)"/>
<path d="M0 0 C3.3 0 6.6 0 10 0 C9.3 0.7 8.7 1.3 8 2 C6 2 4 2 2 2 C1.3 1.3 0.7 0.7 0 0 Z " fill="#FFFFFF" transform="translate(152,193)"/>
<path d="M0 0 C5 1 5 1 8 5 C4 8 4 8 1 8 C1.3 6.7 1.7 5.4 2 4 C2.3 4.7 2.7 5.3 3 6 C3 5 3 4 3 3 C3 2.3 3 1.7 3 1 C1.7 2 0.4 3 -1 4 C-0.7 2.7 -0.3 1.4 0 0 Z " fill="#FFFFFF" transform="translate(187,200)"/>
<path d="M0 0 C0.7 0 1.3 0 2 0 C3.7 3 5.3 5.9 7 9 C4 11 4 11 -1 10 C-1.2 9.2 -1.2 9.2 -2 5 C-1 4.7 -0 4.3 1 4 C0.7 2.7 0.3 1.4 0 0 Z M-1 5 C-0.7 6.3 -0.3 7.6 0 9 C1.3 9 2.6 9 4 9 C3.7 7.7 3.3 6.4 3 5 C1.7 5 0.4 5 -1 5 Z " fill="#FFFFFF" transform="translate(178,204)"/>
<path d="M0 0 C1.7 0.3 3.3 0.7 5 1 C4.7 2.7 4.3 4.3 4 6 C3.7 6.2 3.7 6.2 2 7 C2.3 5.3 2.7 3.7 3 2 C1.7 2.3 0.4 2.7 -1 3 C-0.7 2 -0.3 1 0 0 Z " fill="#FFFFFF" transform="translate(87,209)"/>
<path d="M0 0 C1.3 0.3 2.6 0.7 4 1 C4.3 3 4.7 5 5 7 C4.7 7.3 4.3 7.7 4 8 C2.3 8 0.7 8 -1 8 C-1.3 7.7 -1.7 7.3 -2 7 C-2 2 -2 2 0 0 Z M-1 2 C-1 2.7 -1 3.3 -1 4 C0.3 3.3 1.6 2.7 3 2 C1.7 2 0.4 2 -1 2 Z M0 5 C0 5.7 0 6.3 0 7 C1.3 6.7 2.6 6.3 4 6 C4 5.3 4 4.7 4 4 C2 4 2 4 0 5 Z " fill="#FFFFFF" transform="translate(171,211)"/>
<path d="M0 0 C0.5 0.3 0.5 0.3 3 2 C3 3 3 4 3 5 C1.7 5 0.4 5 -1 5 C-0.7 3.3 -0.3 1.7 0 0 Z " fill="#FFFFFF" transform="translate(224,211)"/>
<path d="M0 0 C1.3 0.3 2.6 0.7 4 1 C4.3 1.7 4.7 2.3 5 3 C6 2.7 7 2.3 8 2 C8.7 2.3 9.3 2.7 10 3 C9.7 5.3 9.3 7.6 9 10 C7.3 10.3 5.7 10.7 4 11 C4 10 4 9 4 8 C4.3 8 4.7 8 5 8 C4 8 3 8 2 8 C1 6 1 6 2 2 C1.3 1.3 0.7 0.7 0 0 Z M7 3 C6.8 3.7 6.8 3.7 6 7 C7 6.7 8 6.3 9 6 C8.7 5 8.3 4 8 3 C7.7 3 7.3 3 7 3 Z " fill="#FFFFFF" transform="translate(94,212)"/>
<path d="M0 0 C0.3 1.3 0.7 2.6 1 4 C0.3 3.3 -0.3 2.7 -1 2 C-2.7 1.7 -4.3 1.3 -6 1 C-6 3.3 -6 5.6 -6 8 C-4 7.7 -2 7.3 0 7 C-0.3 8 -0.7 9 -1 10 C-3 10 -5 10 -7 10 C-9 5 -9 5 -7 0 C-5 -1 -5 -1 0 0 Z " fill="#FFFFFF" transform="translate(118,217)"/>
<path d="M0 0 C1.3 0 2.6 0 4 0 C4.3 2.3 4.7 4.6 5 7 C4.3 6.7 3.7 6.3 3 6 C2.7 5 2.3 4 2 3 C1 2.3 0 1.7 -1 1 C-0.7 0.7 -0.3 0.3 0 0 Z " fill="#FFFFFF" transform="translate(159,216)"/>
<path d="M0 0 C0.7 0 1.3 0 2 0 C2 7 2 7 0 11 C0 7.4 0 3.7 0 0 Z " fill="#FFFFFF" transform="translate(129,218)"/>
<path d="M0 0 C1.3 0.7 2.6 1.3 4 2 C2.7 2.3 1.4 2.7 0 3 C1.7 3.3 3.3 3.7 5 4 C4.7 5.3 4.3 6.6 4 8 C2.3 8 0.7 8 -1 8 C-0.7 7.3 -0.3 6.7 0 6 C1 6.3 2 6.7 3 7 C3 6.3 3 5.7 3 5 C1.3 4.7 -0.3 4.3 -2 4 C-2 3 -2 2 -2 1 C-1.3 0.7 -0.7 0.3 0 0 Z " fill="#FFFFFF" transform="translate(151,218)"/>
<path d="M0 0 C1 0.3 2 0.7 3 1 C2.7 2.3 2.3 3.6 2 5 C1 4.7 0 4.3 -1 4 C-0.7 2.7 -0.3 1.4 0 0 Z " fill="#FFFFFF" transform="translate(217,219)"/>
<path d="M0 0 C1.7 0 3.3 0 5 0 C6 1 6 1 6 7 C4.3 7.3 2.7 7.7 1 8 C0.3 7.3 -0.3 6.7 -1 6 C-0.7 4 -0.3 2 0 0 Z M1 1 C0.8 1.7 0.8 1.7 0 5 C0.5 5.3 0.5 5.3 3 7 C3.7 6.7 4.3 6.3 5 6 C4.8 5.2 4.8 5.2 4 1 C3 1 2 1 1 1 Z " fill="#FFFFFF" transform="translate(121,221)"/>
<path d="M0 0 C1.7 0 3.3 0 5 0 C6 1 6 1 6 7 C4.3 7.3 2.7 7.7 1 8 C0.3 7.3 -0.3 6.7 -1 6 C-1 1 -1 1 0 0 Z M1 1 C0.8 1.7 0.8 1.7 0 5 C0.5 5.3 0.5 5.3 3 7 C3.7 6.7 4.3 6.3 5 6 C4.8 5.2 4.8 5.2 4 1 C3 1 2 1 1 1 Z " fill="#FFFFFF" transform="translate(133,221)"/>
</svg>